<svg width="47" height="50" viewBox="0 0 47 50" fill="none" xmlns="http://www.w3.org/2000/svg">
<g id="Frame" clip-path="url(#clip0_406_572)">
<path id="Vector" d="M0.48645 11.041V0.593847C0.727926 0.132546 1.09543 0 1.5755 0C16.218 0.00974089 30.8608 0.0125242 45.504 0.00834953C46.3323 0.00834953 46.5795 0.274484 46.5805 1.16891C46.5805 4.26025 46.5805 7.35159 46.5805 10.4429C46.5805 11.4302 46.3573 11.6682 45.426 11.6703C44.7997 11.6703 44.1754 11.6703 43.5481 11.6703V45.0092H45.4722C46.3381 45.0092 46.5738 45.2576 46.5747 46.1833C46.5747 47.0621 46.5555 47.9408 46.5824 48.8186C46.5978 49.3404 46.4603 49.738 46.035 50H0.48645V45.6062C0.704837 45.1522 1.04541 44.98 1.51777 45.0019C2.18544 45.0311 2.856 45.0092 3.53232 45.0092V11.6703C2.83964 11.6703 2.16813 11.6609 1.49661 11.6703C1.03482 11.6818 0.678862 11.5315 0.48645 11.041ZM5.10432 44.9601H18.3134C18.1075 44.1847 17.791 43.4124 17.7092 42.6119C17.3167 38.7973 16.9896 34.9754 16.6355 31.1566C16.5653 30.4031 16.8655 29.995 17.561 29.9939C21.5375 29.9877 25.514 29.9877 29.4905 29.9939C30.2111 29.9939 30.5103 30.402 30.4276 31.1889C30.3545 31.8799 30.2977 32.5718 30.2284 33.3264C30.5353 33.3264 30.8057 33.3201 31.0673 33.3264C32.673 33.3692 33.8968 34.3179 34.1815 35.9251C34.3364 36.8049 34.2883 37.74 34.245 38.6449C34.2003 39.3987 33.9094 40.1105 33.4245 40.6526C32.9396 41.1946 32.2925 41.5315 31.5994 41.6027C30.9028 41.6653 30.1976 41.6141 29.4953 41.6141C29.3991 42.2779 29.3703 42.8519 29.2337 43.3946C29.0971 43.9373 28.8565 44.4383 28.6564 44.9758H41.9511V11.7037H31.2097V12.2683C31.2097 13.3756 31.2097 14.4819 31.2097 15.5882C31.2097 16.3845 30.9423 16.6642 30.1996 16.6736C29.7849 16.6799 29.3703 16.6736 28.9489 16.6736C28.9152 17.2529 28.8864 17.7663 28.8527 18.2986H32.749C32.749 18.0325 32.7356 17.805 32.749 17.5806C32.7904 16.9794 33.0559 16.682 33.6053 16.6788C35.6006 16.6684 37.5962 16.6684 39.5921 16.6788C40.1165 16.6788 40.4137 16.9794 40.4272 17.5472C40.4522 18.6208 40.4522 19.6947 40.4272 20.769C40.4147 21.3346 40.1184 21.6571 39.6017 21.6613C37.5923 21.6766 35.582 21.6766 33.5706 21.6613C33.0665 21.6613 32.801 21.3555 32.7548 20.8118C32.7317 20.5602 32.7548 20.3035 32.7548 20.0071C31.2232 20.0071 29.7561 20.0008 28.2889 20.0175C28.1677 20.0175 28.0234 20.1449 27.932 20.2534C27.299 20.9996 26.537 21.535 25.6038 21.5945C24.3483 21.6749 23.0852 21.6989 21.8287 21.6404C20.8907 21.6049 19.9983 21.1919 19.3255 20.482C18.6526 19.7721 18.2472 18.816 18.1883 17.7997C18.1719 17.4334 18.1402 17.0692 18.1142 16.6788H17.4485C17.2234 16.6788 16.9982 16.6872 16.775 16.6788C16.1449 16.6517 15.8765 16.3657 15.862 15.6853C15.8534 15.2949 15.862 14.9046 15.862 14.5143V11.7037H5.10432V44.9601ZM45.0297 1.70848H2.0546V9.96702H45.0297V1.70848ZM18.2739 31.693C18.262 31.7489 18.2549 31.8059 18.2528 31.8632C18.5789 35.4398 18.8954 39.0165 19.2389 42.591C19.3841 44.1043 20.3462 45.0008 21.7633 45.0081C22.9178 45.0137 24.0722 45.0137 25.2267 45.0081C26.7939 45.0081 27.7146 44.0365 27.857 42.3301C28.0638 39.8524 28.3101 37.3789 28.5371 34.9034C28.6333 33.8409 28.7295 32.7785 28.8258 31.693H18.2739ZM45.047 48.3124V46.7104H2.04306V48.3124H45.047ZM17.4186 14.9766H29.6541V11.7037H17.4186V14.9766ZM19.7276 16.7049C19.5419 18.6555 20.4357 19.9403 22.0163 20.0029C23.0332 20.0426 24.054 20.0447 25.0699 20.0029C26.6688 19.9351 27.6924 18.4165 27.3182 16.706L19.7276 16.7049ZM29.6204 39.962C30.2938 39.962 30.8923 40.0121 31.482 39.9495C32.1689 39.8754 32.6692 39.2523 32.7259 38.504C32.7538 38.1481 32.7259 37.7891 32.749 37.4322C32.8799 35.374 31.99 34.9013 30.4141 34.9868C30.1062 35.0046 30.0399 35.1392 30.0206 35.4241C29.9793 36.0232 29.911 36.6202 29.858 37.2182C29.7782 38.121 29.7022 39.0238 29.6204 39.962ZM38.8725 19.9873V18.3832H34.3278V19.9904L38.8725 19.9873Z" fill="#B98D58"/>
<path id="Vector_2" d="M23.5385 8.33273C22.3542 8.33273 21.17 8.33273 19.9857 8.33273C19.1708 8.33273 18.9341 8.07807 18.9274 7.21079C18.9274 6.25166 18.9216 5.29253 18.9274 4.3334C18.9332 3.65814 19.216 3.34087 19.8346 3.33878C22.2936 3.33043 24.752 3.33043 27.2097 3.33878C27.8351 3.33878 28.1208 3.65188 28.1266 4.324C28.1343 5.33219 28.1343 6.34106 28.1266 7.35064C28.1218 8.03424 27.8543 8.32855 27.2194 8.33377C25.9966 8.33899 24.7671 8.33273 23.5385 8.33273ZM20.4898 6.63051H26.5584V5.0243H20.4898V6.63051Z" fill="#B98D58"/>
<path id="Vector_3" d="M6.61667 8.32534C6.31608 8.32522 6.01849 8.26053 5.74106 8.13502C5.46363 8.00951 5.21184 7.82565 5.00024 7.59406C4.78863 7.36246 4.62138 7.08771 4.50814 6.78565C4.3949 6.48358 4.3379 6.16019 4.34044 5.83411C4.34294 5.17592 4.58415 4.54525 5.01191 4.07847C5.43967 3.61169 6.0196 3.34632 6.62629 3.33975C7.88562 3.33348 8.96024 4.5097 8.93523 5.8696C8.92336 6.52718 8.67355 7.15332 8.23974 7.6128C7.80594 8.07227 7.22295 8.32821 6.61667 8.32534ZM6.57819 6.65548C6.67906 6.6634 6.78038 6.64946 6.87624 6.61447C6.9721 6.57948 7.06057 6.52414 7.13651 6.45167C7.21245 6.3792 7.27432 6.29105 7.31853 6.19237C7.36274 6.09369 7.3884 5.98645 7.39401 5.8769C7.39603 5.66405 7.32476 5.45804 7.19416 5.29918C7.06356 5.14032 6.88302 5.04004 6.68786 5.01796C6.49261 5.00698 6.30082 5.07703 6.15144 5.21388C6.00206 5.35073 5.90629 5.54412 5.88358 5.75479C5.87188 5.86384 5.88083 5.97433 5.90986 6.0795C5.93889 6.18467 5.98741 6.28231 6.05243 6.36643C6.11746 6.45055 6.19763 6.51939 6.28803 6.56873C6.37843 6.61808 6.47717 6.64688 6.57819 6.65339V6.65548Z" fill="#B98D58"/>
<path id="Vector_4" d="M38.5005 4.99716C38.0069 4.99716 37.5134 5.00864 37.0208 4.99716C36.5282 4.98568 36.2348 4.65901 36.2242 4.19875C36.219 4.08815 36.2349 3.97758 36.2709 3.87394C36.3069 3.7703 36.3622 3.67581 36.4333 3.59639C36.5044 3.51696 36.5899 3.45429 36.6844 3.4123C36.7788 3.37032 36.8803 3.3499 36.9823 3.35234C37.9983 3.3252 39.0151 3.32729 40.032 3.35234C40.1341 3.35068 40.2354 3.37105 40.3301 3.41226C40.4248 3.45348 40.511 3.51472 40.5837 3.59241C40.6564 3.67011 40.7142 3.76272 40.7536 3.86484C40.793 3.96696 40.8132 4.07657 40.8132 4.18727C40.8132 4.65484 40.4804 4.99194 39.9811 5.00447C39.4817 5.01699 38.994 4.99716 38.5005 4.99716Z" fill="#B98D58"/>
<path id="Vector_5" d="M38.488 8.33066C38.007 8.33066 37.5308 8.34319 37.0536 8.33066C36.536 8.31397 36.2281 7.99982 36.2233 7.51869C36.2185 7.03756 36.5264 6.69106 37.0353 6.68376C38.0217 6.6601 39.0085 6.6601 39.9955 6.68376C40.4929 6.69628 40.8191 7.072 40.8104 7.52913C40.8018 7.98625 40.4814 8.31918 39.9686 8.33484C39.477 8.34214 38.9835 8.33066 38.488 8.33066Z" fill="#B98D58"/>
</g>
<defs>
<clipPath id="clip0_406_572">
<rect width="46.1027" height="50" fill="white" transform="translate(0.48645)"/>
</clipPath>
</defs>
</svg>
