<svg width="42" height="50" viewBox="0 0 42 50" fill="none" xmlns="http://www.w3.org/2000/svg">
<g id="Frame" clip-path="url(#clip0_406_563)">
<path id="Vector" d="M0.6729 50.0001C0.230631 49.7863 0.0883354 49.4036 0.096027 48.8979C0.112372 47.9396 0.096027 46.9803 0.102757 46.021C0.110449 45.3036 0.377733 45.02 1.03633 45.0158C1.97856 45.0085 2.91982 45.0158 3.92646 45.0158V27.9745C3.92646 26.9203 4.14279 26.6877 5.12059 26.6877H11.3095C10.8989 26.28 10.5403 25.9578 10.2105 25.5929C8.72701 23.9652 7.87323 21.9955 7.80689 19.7181C7.72709 16.7985 7.77228 13.8674 7.77517 10.9415C7.77517 10.3982 8.04437 10.1073 8.54433 10.0489C8.69365 10.0353 8.84357 10.0311 8.99333 10.0364H16.9734C16.9734 9.32523 16.9734 8.64954 16.9734 7.97281C16.9734 6.95614 17.2051 6.70797 18.1425 6.70484C18.7271 6.70484 19.3117 6.70137 19.8962 6.69442C19.9482 6.68195 19.9988 6.66342 20.0472 6.63915V4.68925C20.0472 3.60168 20.2558 3.37645 21.2605 3.37645H29.3781C29.1214 2.22944 29.3464 1.29098 30.1732 0.579842C31.0693 -0.195949 33.5921 -0.18865 34.4998 0.579842C34.8779 0.892414 35.1569 1.32487 35.2982 1.8172C35.4395 2.30954 35.436 2.83736 35.2882 3.32744C34.9776 4.35974 34.1286 5.03543 33.0653 5.03856C29.4377 5.04899 25.8101 5.03856 22.1826 5.03856H21.6249V6.70693H23.494C24.4381 6.70693 24.667 6.95301 24.6689 7.96968C24.6689 8.6339 24.6689 9.29707 24.6689 10.0374H32.7307C33.646 10.0374 33.87 10.2835 33.87 11.2783C33.87 13.7495 33.8508 16.2208 33.8748 18.691C33.9065 21.8901 32.8422 24.5136 30.4982 26.4959C30.4636 26.5251 30.4367 26.5657 30.328 26.6888H36.613C37.461 26.6888 37.7168 26.963 37.7168 27.8785C37.7168 33.3703 37.7168 38.8648 37.7168 44.362V45.0148H38.9869C39.5714 45.0148 40.157 45.0044 40.7406 45.021C41.2213 45.0356 41.5165 45.3151 41.5261 45.8271C41.5482 46.948 41.5338 48.07 41.5309 49.192C41.5309 49.6091 41.2722 49.8239 40.9723 50.0011L0.6729 50.0001ZM36.1506 44.9856V28.3864H5.49652V44.9856H36.1506ZM32.248 11.7381H9.33176C9.33176 14.4565 9.21735 17.1447 9.35964 19.8161C9.5577 23.5314 12.4363 26.5647 15.786 26.6502C19.1357 26.7357 22.5008 26.7326 25.8563 26.6502C29.0291 26.573 31.9759 23.7118 32.2096 20.2989C32.4067 17.4783 32.248 14.6254 32.248 11.7381ZM39.9791 46.6998H1.67281V48.2994H39.9791V46.6998ZM18.5435 9.99883H23.1008V8.40137H18.5435V9.99883ZM32.3211 3.36811C32.5903 3.36811 32.8614 3.38479 33.1287 3.36811C33.318 3.36062 33.4979 3.27668 33.6331 3.13277C33.7683 2.98886 33.849 2.79536 33.8594 2.59023C33.8787 2.19712 33.6306 1.79254 33.2441 1.75604C32.6335 1.70443 32.0202 1.70443 31.4096 1.75604C31.0251 1.7915 30.7722 2.20442 30.8145 2.59753C30.8626 3.03964 31.1029 3.30971 31.5125 3.35351C31.7798 3.39 32.0509 3.36811 32.3211 3.36811Z" fill="#B98D58"/>
<path id="Vector_2" d="M20.8122 31.6792C24.0171 31.6792 27.2245 31.6792 30.4345 31.6792C31.3248 31.6792 31.567 31.9325 31.5632 32.8835C31.5565 34.6562 31.5834 36.4288 31.5122 38.2014C31.4603 39.4819 31.0594 40.6623 29.9239 41.2775C29.4107 41.5367 28.8508 41.6688 28.2846 41.6644C23.5633 41.6949 18.8419 41.6991 14.1205 41.6769C12.1312 41.6717 10.6977 40.4965 10.2074 38.4965C10.119 38.0865 10.0774 37.6663 10.0833 37.2453C10.0689 35.7854 10.0747 34.3194 10.0833 32.8564C10.0833 31.9378 10.3285 31.6812 11.1948 31.6812C14.399 31.6785 17.6048 31.6778 20.8122 31.6792ZM30.0806 33.3757H11.6207C11.6207 34.7219 11.6101 36.0357 11.6207 37.3495C11.638 38.9835 12.5552 40.0043 14.0676 40.0095C18.8345 40.0262 23.6014 40.0262 28.3683 40.0095C29.2894 40.0095 29.8105 39.63 29.8874 38.654C30.0268 36.9137 30.0229 35.1598 30.0806 33.3757Z" fill="#B98D58"/>
<path id="Vector_3" d="M20.8209 13.374H29.6336C30.4171 13.374 30.7873 13.6347 30.7931 14.1915C30.7988 14.7483 30.4152 15.0414 29.6124 15.0414C23.7514 15.0414 17.891 15.0414 12.0312 15.0414C11.8517 15.0433 11.6724 15.03 11.4948 15.0017C11.0746 14.9308 10.8727 14.6274 10.8535 14.1936C10.8362 13.7974 11.1246 13.4637 11.5149 13.4043C11.6932 13.3804 11.8728 13.3707 12.0524 13.3751L20.8209 13.374Z" fill="#B98D58"/>
<path id="Vector_4" d="M20.7968 37.5081C20.5421 37.5081 20.2863 37.5268 20.0334 37.5081C19.8361 37.4998 19.6493 37.4095 19.5117 37.256C19.3741 37.1024 19.2962 36.8974 19.2941 36.6833C19.2948 36.4689 19.3729 36.2634 19.5117 36.1108C19.6504 35.9582 19.8387 35.8706 20.0363 35.8668C20.5603 35.8418 21.0862 35.8418 21.6093 35.8668C21.8068 35.872 21.9946 35.9607 22.1325 36.114C22.2705 36.2674 22.3477 36.4732 22.3477 36.6874C22.3446 36.9013 22.2658 37.1058 22.1277 37.2585C21.9895 37.4113 21.8026 37.5006 21.6054 37.5081C21.3372 37.5268 21.066 37.5081 20.7968 37.5081Z" fill="#B98D58"/>
</g>
<defs>
<clipPath id="clip0_406_563">
<rect width="41.4387" height="50" fill="white" transform="translate(0.0967102)"/>
</clipPath>
</defs>
</svg>
