<svg width="41" height="50" viewBox="0 0 41 50" fill="none" xmlns="http://www.w3.org/2000/svg">
<g id="Frame" clip-path="url(#clip0_406_582)">
<path id="Vector" d="M9.08532 50.0002C8.64171 49.6965 8.53201 49.2822 8.59264 48.7134C8.98621 45.0471 9.34899 41.3767 9.72235 37.7073C9.84071 36.5437 9.95811 35.3801 10.0832 34.2175C10.1467 33.6289 10.4171 33.3638 10.9733 33.3304C11.1658 33.3179 11.3582 33.3304 11.62 33.3304C11.62 32.6927 11.6277 32.078 11.6113 31.4685C11.6113 31.3809 11.5093 31.2755 11.4304 31.215C10.8078 30.737 10.5499 30.0513 10.446 29.2655C9.93597 25.4041 9.41987 21.5426 8.89768 17.6812C8.84681 17.453 8.72645 17.25 8.55607 17.1052C5.89569 14.7208 3.22922 12.3448 0.556655 9.97721C0.265085 9.72257 0.0216287 9.44079 0.117856 8.99203C0.214084 8.54327 0.511428 8.33455 1.04934 8.33246C2.98544 8.32724 4.92155 8.33246 6.85669 8.33246C6.96143 8.3241 7.0666 8.3241 7.17135 8.33246C7.65249 8.41178 7.88344 8.2521 8.05376 7.69481C8.55703 6.03754 10.0457 5.00957 11.8066 4.99809C13.2616 4.98869 14.7156 4.99809 16.2553 4.99809C16.1494 3.27298 16.4785 1.73572 17.8651 0.704619C18.6244 0.141062 19.4837 -0.0447021 20.3911 0.0168717C21.5459 0.0961871 22.4927 0.619042 23.2019 1.62301C23.8986 2.60923 23.99 3.76557 23.9352 4.99809C25.3786 4.99809 26.7701 4.98348 28.1605 5.00644C28.6246 5.00411 29.0872 5.0644 29.5376 5.18594C30.8463 5.56999 31.7344 6.48212 32.1502 7.88579C32.2589 8.25419 32.4157 8.34707 32.7516 8.34081C33.9968 8.3189 35.2429 8.3262 36.4881 8.33455C38.2375 8.34081 39.1834 9.38548 39.2633 11.288C39.4471 15.905 39.6569 20.5199 39.8561 25.1348C39.9225 26.6794 40.0043 28.2229 40.0485 29.7674C40.1063 31.6126 38.7908 33.2114 37.1617 33.3158C35.5913 33.4118 34.0968 31.9591 33.9313 30.1703C33.9127 29.9434 33.9047 29.7156 33.9073 29.4878C33.9073 24.3288 33.9073 19.1705 33.9073 14.0129V13.346C33.252 13.346 32.6294 13.3325 32.0087 13.3627C31.9336 13.3627 31.8211 13.5892 31.8028 13.7228C31.4881 16.0188 31.185 18.3241 30.8799 20.6253C30.4873 23.585 30.0934 26.5454 29.6983 29.5065C29.6579 29.8381 29.5573 30.1576 29.4024 30.4467C29.2475 30.7358 29.0413 30.9888 28.7957 31.1909C28.6604 31.3243 28.5766 31.508 28.5609 31.7055C28.5301 32.221 28.5503 32.7397 28.5503 33.297C28.7331 33.3085 28.8774 33.3231 29.0218 33.3262C29.8089 33.3398 30.0322 33.5401 30.1236 34.399C30.3218 36.24 30.5027 38.083 30.6923 39.925C30.9823 42.7533 31.271 45.5815 31.5584 48.4097C31.5882 48.6998 31.6623 49.0233 31.5786 49.278C31.4881 49.5514 31.236 49.7622 31.0541 50.0002H9.08532ZM10.6635 18.9732C10.6779 19.1684 10.6798 19.2321 10.6875 19.2957C11.1225 22.5936 11.5581 25.8911 11.9943 29.1882C12.078 29.8092 12.3022 29.9908 12.92 29.9918C17.7051 29.9918 22.4905 29.9918 27.2762 29.9918C27.9142 29.9918 28.0999 29.8217 28.1923 29.1329C28.9653 23.3589 29.7368 17.5845 30.5066 11.8098C30.5855 11.2233 30.6509 10.6347 30.7231 10.0357H13.6436C13.7581 11.1972 13.864 12.3108 13.9775 13.4233C14.2229 15.8309 14.475 18.2375 14.7185 20.6451C14.7743 21.1972 14.4818 21.6554 14.0266 21.6366C13.763 21.607 13.5133 21.4937 13.3088 21.311C12.4408 20.5763 11.5959 19.804 10.6635 18.9732ZM28.6417 35.0284H11.5497C11.2658 37.7981 10.9858 40.5397 10.6981 43.3408H11.2755C14.3374 43.3408 17.3991 43.3408 20.4604 43.3408C20.6402 43.3311 20.8204 43.3409 20.9983 43.37C21.164 43.3973 21.3153 43.4875 21.4253 43.6245C21.5353 43.7616 21.5968 43.9366 21.5988 44.1183C21.6198 44.2917 21.5829 44.4675 21.4946 44.6138C21.4063 44.7601 21.2725 44.8672 21.1176 44.9156C20.9023 44.9825 20.6785 45.0125 20.4546 45.0043C17.333 45.0092 14.2114 45.0092 11.0897 45.0043H10.5268C10.4113 46.1231 10.2988 47.196 10.1842 48.3064H30.0072C29.5491 43.872 29.0968 39.4658 28.6417 35.0284ZM32.0915 11.6648H34.245C35.2487 11.6648 35.4488 11.887 35.4488 12.9922C35.4488 18.4887 35.4488 23.9879 35.4488 29.4898C35.4432 29.6848 35.4487 29.88 35.4652 30.0743C35.5614 30.9092 36.3389 31.6658 37.0655 31.6512C37.7583 31.6366 38.4127 30.93 38.5041 30.0931C38.5166 29.9309 38.5166 29.7679 38.5041 29.6057C38.4281 27.867 38.3463 26.1283 38.2722 24.3876C38.0842 19.9682 37.8975 15.5488 37.7121 11.1294C37.6813 10.4228 37.358 10.0273 36.7056 10.0127C35.3257 9.98139 33.9448 9.99391 32.5678 10.0127C32.5037 10.0262 32.4437 10.0568 32.3932 10.1018C32.3428 10.1468 32.3036 10.2048 32.2791 10.2705C32.1906 10.7057 32.153 11.1555 32.0915 11.6648ZM12.9421 18.8449C12.9421 18.6069 12.9546 18.4619 12.9421 18.3231C12.6756 15.6921 12.3984 13.0611 12.1434 10.4291C12.1069 10.0565 11.9596 9.99183 11.6536 9.99391C8.92558 10.0043 6.19753 9.99913 3.47428 10.0012C3.36651 10.0012 3.25777 10.0252 3.0605 10.0482L12.9421 18.8449ZM9.46735 8.29385H30.6432C30.6329 8.21883 30.6158 8.14508 30.5922 8.07364C30.5458 7.97179 30.4931 7.87346 30.4344 7.77934C29.909 6.95384 29.1584 6.65745 28.2616 6.65849C22.8023 6.66406 17.3436 6.66614 11.8855 6.66475C11.6158 6.65856 11.3464 6.68729 11.083 6.75033C10.3228 6.94966 9.79548 7.45269 9.46735 8.29385ZM13.1856 33.2897H26.9895V31.6898H13.1856V33.2897ZM22.384 4.96469C22.4802 3.80731 22.4119 2.72299 21.4131 2.05507C20.5374 1.4696 19.5963 1.48003 18.7302 2.08533C17.7593 2.76369 17.7198 3.83549 17.8209 4.96469H22.384Z" fill="#B98D58"/>
<path id="Vector_2" d="M25.4623 43.3437C25.956 43.3437 26.4496 43.3302 26.9433 43.3437C27.4369 43.3573 27.7266 43.6693 27.7391 44.14C27.7459 44.2505 27.7315 44.3613 27.6966 44.4654C27.6618 44.5694 27.6073 44.6645 27.5367 44.7444C27.466 44.8243 27.3808 44.8874 27.2864 44.9296C27.192 44.9718 27.0906 44.9922 26.9885 44.9895C25.9714 45.0198 24.9533 45.0177 23.9371 44.9895C23.8351 44.992 23.7336 44.9725 23.6386 44.932C23.5435 44.8916 23.4569 44.831 23.3836 44.7539C23.3104 44.6768 23.252 44.5847 23.2119 44.4829C23.1718 44.381 23.1507 44.2716 23.15 44.1609C23.15 43.6923 23.4801 43.3656 23.9814 43.3364C24.0112 43.3364 24.0411 43.3364 24.0709 43.3364H25.4623V43.3437Z" fill="#B98D58"/>
</g>
<defs>
<clipPath id="clip0_406_582">
<rect width="39.9538" height="50" fill="white" transform="translate(0.0967102)"/>
</clipPath>
</defs>
</svg>
