<svg width="186" height="150" viewBox="0 0 186 150" fill="none" xmlns="http://www.w3.org/2000/svg">
<g id="Frame" opacity="0.3" clip-path="url(#clip0_406_381)">
<path id="Vector" d="M144.703 27.5455C130.54 31.1111 108.303 41.3182 106.539 60.1256C104.734 79.4992 125.29 82.8352 137.842 79.3309C146.811 76.8212 156.083 72.873 163.481 66.5987C168.827 62.0078 175.44 54.5859 174.421 46.3529C172.478 30.5755 152.597 24.2554 140.941 27.8363C140.805 27.9002 140.694 28.0174 140.63 28.1658C140.566 28.3142 140.553 28.4835 140.594 28.6417C140.635 28.7999 140.726 28.9361 140.851 29.0246C140.976 29.113 141.126 29.1476 141.272 29.1217C148.037 27.2798 155.169 28.1468 161.415 31.5702C169.681 36.1611 176.57 45.5877 170.894 55.8866C164.156 68.2362 149.428 74.4951 137.442 77.7087C129.864 79.744 121.405 80.5398 114.599 75.4286C107.38 69.996 106.209 60.1256 110.466 51.9538C117.093 39.0992 132.62 31.6467 144.909 28.1729C145.281 28.0658 145.116 27.4537 144.744 27.5455H144.703Z" fill="#B98D58"/>
<path id="Vector_2" d="M142.788 26.8107C139.509 28.188 136.174 29.4582 133.019 31.1568C132.956 31.2006 132.909 31.2679 132.886 31.3466C132.863 31.4254 132.866 31.5106 132.894 31.5874C132.921 31.6642 132.973 31.7275 133.039 31.7663C133.105 31.8051 133.181 31.8169 133.254 31.7995C136.588 30.56 139.77 28.8767 142.967 27.3158C143.215 27.1933 143.036 26.7036 142.788 26.8107Z" fill="#B98D58"/>
<path id="Vector_3" d="M106.65 60.2938C105.658 66.415 111.857 65.7417 111.43 71.113C111.431 71.2645 111.466 71.4132 111.534 71.5447C111.601 71.6762 111.699 71.7858 111.816 71.8629L112.643 72.5056C113.318 73.0106 114.172 72.0006 113.759 71.2661C108.399 61.8394 140.528 48.0973 145.006 47.9443C147.872 47.8371 149.346 48.8012 152.046 47.4393C154.292 46.3069 156.179 44.3787 158.425 43.2615C160.175 42.3587 171.913 37.9973 171.638 42.9708C171.555 44.3481 173.608 44.3634 173.58 42.9708C173.456 37.8137 167.587 38.3799 164.281 39.0532C159.624 39.9255 156.923 42.3127 152.887 44.6388C149.442 46.6129 146.108 45.2662 142.554 46.368C133.401 49.5344 124.75 54.2691 116.914 60.4009C113.139 63.2779 109.557 67.0424 112.353 72.1842L113.469 70.9447C113.469 70.9447 113.828 67.5474 113.883 67.073C113.882 66.9296 113.848 66.789 113.782 66.6653C113.717 66.5416 113.623 66.4394 113.511 66.3691C111.472 64.8388 107.394 62.8341 107.187 60.3703C107.187 60.0489 106.705 59.9265 106.65 60.2938Z" fill="#B98D58"/>
<path id="Vector_4" d="M166.526 38.9919L166.76 39.1755C166.875 39.2509 167.006 39.2907 167.139 39.2907C167.273 39.2907 167.404 39.2509 167.518 39.1755C167.929 38.875 168.281 38.4865 168.554 38.0328C168.827 37.5791 169.016 37.0693 169.11 36.5334C169.204 35.9975 169.2 35.4462 169.1 34.9118C168.999 34.3775 168.803 33.8708 168.524 33.4216C167.463 31.5546 164.391 29.8866 162.682 31.4016C162.117 31.876 162.421 32.7942 162.875 33.1461C163.592 33.6971 164.515 33.5134 165.314 33.8195C165.695 33.939 166.046 34.1544 166.34 34.449C166.634 34.7436 166.862 35.1094 167.008 35.5181C167.086 35.9182 167.091 36.3316 167.022 36.7337C166.954 37.1359 166.813 37.5187 166.609 37.8595C166.471 38.1502 166.168 38.7317 166.526 38.9919Z" fill="#B98D58"/>
<path id="Vector_5" d="M155.628 44.2256C150.117 47.6841 145.984 48.4493 139.784 48.235C136.12 48.1126 133.681 48.3727 130.526 50.5305C126.902 53.0095 123.871 55.1214 120.069 57.2944C118.333 58.2891 117.548 58.8247 116.983 60.9671C116.945 61.143 116.959 61.3276 117.023 61.4938C117.087 61.66 117.198 61.7989 117.338 61.8898C117.479 61.9808 117.642 62.0191 117.804 61.999C117.966 61.9789 118.117 61.9014 118.236 61.7782C120.468 59.5133 124.037 59.0848 126.613 57.325C130.857 54.448 133.157 51.4027 138.668 51.0967C141.796 50.913 144.565 51.5099 147.61 50.3621C150.655 49.2144 153.3 46.8272 155.876 44.8225C155.921 44.7715 155.951 44.7066 155.962 44.6364C155.973 44.5662 155.964 44.494 155.937 44.4293C155.91 44.3647 155.866 44.3106 155.811 44.2742C155.756 44.2378 155.692 44.2209 155.628 44.2256Z" fill="#B98D58"/>
<path id="Vector_6" d="M107.917 67.0119C110.562 68.68 110.479 72.521 112.243 75.046C113.719 76.9459 115.573 78.4388 117.657 79.4073C123.623 82.2856 130.172 83.3422 136.629 82.4679C150.544 80.7387 162.627 69.996 170.907 57.9831C171.513 57.1109 170.287 56.2692 169.639 56.8813C159.113 66.7824 150.861 78.1525 136.146 79.8358C128.555 80.7234 117.685 79.8358 112.973 72.0619C111.375 69.4451 111.127 67.0885 108.371 65.8642C107.737 65.5888 107.352 66.7059 107.917 67.0578V67.0119Z" fill="#B98D58"/>
<path id="Vector_7" d="M169.598 60.5386C164.666 72.429 154.057 78.0452 142.925 80.1417C130.043 82.5596 112.78 84.1052 108.798 66.5832C108.746 66.4213 108.645 66.2843 108.513 66.1951C108.381 66.1059 108.225 66.07 108.071 66.0933C107.918 66.1166 107.776 66.1978 107.67 66.3232C107.564 66.4486 107.501 66.6107 107.489 66.7822C107.407 69.4143 107.861 70.8987 109.887 72.2607C110.272 72.5208 110.603 71.8781 110.231 71.6027C106.897 69.1848 107.476 68.4196 108.509 71.4496C109.039 72.8763 109.744 74.2151 110.603 75.4284C112.231 77.8379 114.37 79.7621 116.831 81.0293C123.43 84.35 132.399 82.9881 139.315 82.1005C151.977 80.4478 164.597 74.449 169.791 60.6763C169.793 60.6505 169.788 60.6246 169.776 60.6023C169.764 60.58 169.746 60.5625 169.725 60.5523C169.703 60.5421 169.679 60.5397 169.657 60.5455C169.634 60.5513 169.613 60.5649 169.598 60.5845V60.5386Z" fill="#B98D58"/>
<path id="Vector_8" d="M165.272 31.7232C165.896 31.6799 166.518 31.8356 167.064 32.1718C167.611 32.508 168.06 33.0107 168.358 33.6208C169.02 34.998 168.455 36.1151 168.11 37.4771C168.081 37.6084 168.079 37.7451 168.104 37.8774C168.129 38.0096 168.181 38.1339 168.255 38.2411C168.329 38.3483 168.424 38.4357 168.532 38.4968C168.641 38.5579 168.76 38.5912 168.882 38.5942C169.327 38.6418 169.775 38.5517 170.177 38.3341C170.211 38.3134 170.24 38.2854 170.264 38.2517C170.288 38.218 170.306 38.1794 170.316 38.138C170.327 38.0967 170.329 38.0534 170.324 38.0108C170.319 37.9683 170.307 37.9273 170.287 37.8903C170.033 37.4814 169.686 37.1542 169.281 36.9415L169.447 38.3341C170.015 37.5428 170.324 36.5608 170.324 35.5489C170.324 34.537 170.015 33.5551 169.447 32.7638C168.947 32.0608 168.277 31.5306 167.516 31.2351C166.755 30.9397 165.933 30.8914 165.148 31.0958C165.084 31.1116 165.026 31.1513 164.985 31.2084C164.944 31.2654 164.922 31.3364 164.922 31.4095C164.922 31.4826 164.944 31.5535 164.985 31.6106C165.026 31.6676 165.084 31.7073 165.148 31.7232H165.272Z" fill="#B98D58"/>
<path id="Vector_9" d="M142.498 27.3923C147.83 27.1169 167.559 28.6931 168.221 37.477C168.243 37.6478 168.32 37.8038 168.438 37.9167C168.556 38.0295 168.706 38.0916 168.861 38.0916C169.017 38.0916 169.167 38.0295 169.285 37.9167C169.402 37.8038 169.479 37.6478 169.502 37.477C170.067 32.4117 165.975 30.4682 162.255 29.2134C155.891 26.8219 149.123 26.0581 142.457 26.9792C142.236 26.9792 142.291 27.4076 142.457 27.3923H142.498Z" fill="#B98D58"/>
<path id="Vector_10" d="M117.41 67.5474C117.137 66.0811 117.229 64.5601 117.676 63.1474C118.123 61.7348 118.907 60.4838 119.945 59.5286C120.413 59.0695 119.711 58.2738 119.256 58.7634C118.263 59.9267 117.554 61.353 117.197 62.9066C116.84 64.4602 116.847 66.0894 117.217 67.6392C117.217 67.7769 117.437 67.7157 117.41 67.6392V67.5474Z" fill="#B98D58"/>
<path id="Vector_11" d="M138.186 57.264C139.563 55.0604 140.142 50.8674 137.759 49.1381C137.545 48.9951 137.307 48.9016 137.06 48.8635C136.813 48.8253 136.561 48.8433 136.32 48.9163C136.079 48.9892 135.854 49.1157 135.659 49.288C135.463 49.4602 135.301 49.6748 135.182 49.9186C134.879 50.6684 135.182 51.4489 135.182 52.1528C135.086 53.6831 133.598 54.5095 132.606 55.3359C132.569 55.356 132.537 55.3848 132.512 55.4204C132.486 55.456 132.469 55.4973 132.459 55.5415C132.45 55.5857 132.45 55.6316 132.459 55.6759C132.468 55.7201 132.485 55.7618 132.51 55.7976C132.535 55.8335 132.567 55.8627 132.603 55.8832C132.64 55.9037 132.68 55.915 132.721 55.9162C132.761 55.9174 132.802 55.9085 132.839 55.8902C132.877 55.8719 132.91 55.8446 132.936 55.8103C133.787 55.1251 134.584 54.3624 135.32 53.5301C135.802 52.8721 135.678 52.5507 135.816 51.8162C135.954 51.0816 136.188 50.3777 137.001 50.393L137.883 50.7756C138.33 51.3654 138.608 52.0902 138.682 52.8568C138.912 54.3401 138.699 55.8663 138.075 57.2028H138.172L138.186 57.264Z" fill="#B98D58"/>
<path id="Vector_12" d="M152.721 36.7885C151.206 37.569 151.095 39.1758 150.765 40.8132C150.487 42.3253 149.686 43.6555 148.533 44.5165C147.568 45.2358 146.507 45.4041 145.777 46.46C145.53 46.7419 145.382 47.1135 145.361 47.5067C145.34 47.8998 145.447 48.2881 145.663 48.6005C145.879 48.9129 146.189 49.1283 146.537 49.2074C146.884 49.2864 147.245 49.2238 147.555 49.0309C149.084 48.1587 150.131 45.6643 150.82 43.9809C151.509 42.2976 151.274 38.3341 152.983 37.2476C153.258 37.0793 152.983 36.6355 152.735 36.7885H152.721Z" fill="#B98D58"/>
<path id="Vector_13" d="M113.579 51.1578C116.357 46.127 120.452 42.1596 125.318 39.7877C125.703 39.604 125.318 38.9766 124.987 39.1602C120.053 41.5988 115.96 45.7425 113.317 50.9742C113.306 51.0135 113.308 51.0558 113.321 51.0942C113.334 51.1327 113.358 51.1651 113.39 51.1863C113.422 51.2075 113.459 51.2162 113.496 51.211C113.533 51.2059 113.567 51.1871 113.593 51.1578H113.579Z" fill="#B98D58"/>
<path id="Vector_14" d="M117.768 48.1279C118.334 47.3999 118.962 46.7337 119.642 46.1385C120.317 45.5417 121.116 45.1285 121.791 44.6082C121.943 44.4858 121.874 44.1797 121.667 44.2563C120.023 45.0623 118.597 46.3341 117.534 47.9443C117.41 48.1126 117.617 48.3575 117.755 48.1891L117.768 48.1279Z" fill="#B98D58"/>
<path id="Vector_15" d="M119.063 49.3521C119.729 48.9888 120.339 48.5082 120.868 47.9289C121.047 47.7452 120.771 47.4392 120.592 47.6381C120.095 48.1961 119.523 48.6658 118.897 49.0307C118.691 49.1378 118.897 49.4592 119.063 49.3521Z" fill="#B98D58"/>
<path id="Vector_16" d="M157.088 56.6058C157.942 55.9324 158.769 55.2438 159.596 54.5246C160.54 53.7852 161.421 52.9501 162.227 52.0302C162.379 51.8313 162.227 51.464 161.952 51.6323C161.129 52.3596 160.347 53.1415 159.61 53.9737C158.755 54.8306 157.874 55.657 156.992 56.4527C156.909 56.5293 156.992 56.667 157.088 56.6058Z" fill="#B98D58"/>
<path id="Vector_17" d="M161.001 55.703L161.773 54.8767C162.117 54.5247 161.594 53.9432 161.263 54.3105L160.492 55.1215C160.147 55.4888 160.671 56.055 161.001 55.703Z" fill="#B98D58"/>
<path id="Vector_18" d="M163.261 55.9173H163.55C163.922 55.8408 163.77 55.2134 163.398 55.2899H163.109C162.737 55.2899 162.889 55.9938 163.261 55.9173Z" fill="#B98D58"/>
<path id="Vector_19" d="M126.42 75.2448C131.113 76.5595 136.022 76.6067 140.735 75.3825C141.038 75.306 140.9 74.801 140.597 74.8622C135.959 76.0555 131.14 76.0868 126.489 74.954C126.324 74.954 126.241 75.1989 126.42 75.2448Z" fill="#B98D58"/>
<path id="Vector_20" d="M143.367 73.3014C143.436 73.3014 143.503 73.2707 143.552 73.2162C143.601 73.1617 143.629 73.0877 143.629 73.0106C143.629 72.9335 143.601 72.8596 143.552 72.805C143.503 72.7505 143.436 72.7198 143.367 72.7198C143.297 72.7198 143.23 72.7505 143.181 72.805C143.132 72.8596 143.105 72.9335 143.105 73.0106C143.105 73.0877 143.132 73.1617 143.181 73.2162C143.23 73.2707 143.297 73.3014 143.367 73.3014Z" fill="#B98D58"/>
<path id="Vector_21" d="M146.466 33.5136L147.968 33.1769C148.368 33.0851 148.189 32.3658 147.803 32.5035L146.329 32.9933C146.277 33.0221 146.235 33.0704 146.212 33.1297C146.189 33.1889 146.185 33.2554 146.201 33.3175C146.218 33.3795 146.253 33.4332 146.302 33.469C146.35 33.5048 146.409 33.5206 146.466 33.5136Z" fill="#B98D58"/>
<path id="Vector_22" d="M149.566 34.8144C149.998 34.7311 150.416 34.5763 150.806 34.3553C150.847 34.3243 150.877 34.2799 150.894 34.2284C150.911 34.1768 150.912 34.1209 150.898 34.0683C150.885 34.0158 150.856 33.9694 150.818 33.9357C150.779 33.9021 150.731 33.8829 150.682 33.8809C150.248 33.933 149.823 34.0462 149.415 34.2175C149.343 34.2399 149.283 34.2927 149.247 34.3645C149.211 34.4362 149.202 34.521 149.222 34.6001C149.242 34.6792 149.289 34.7463 149.354 34.7865C149.419 34.8267 149.495 34.8367 149.566 34.8144Z" fill="#B98D58"/>
<path id="Vector_23" d="M137.924 43.5982C137.271 45.6561 136.088 47.4551 134.521 48.7707C133.215 49.5547 131.975 50.4663 130.815 51.4946C130.443 51.9078 130.911 52.4587 131.338 52.2597C132.991 51.2725 134.497 50.0078 135.802 48.5105C136.954 47.1486 137.787 45.4933 138.227 43.6901C138.227 43.4758 137.993 43.3993 137.924 43.5982Z" fill="#B98D58"/>
<path id="Vector_24" d="M138.31 41.5783C138.241 41.8078 138.186 42.0527 138.117 42.2823C138.126 42.3093 138.141 42.3327 138.162 42.3492C138.183 42.3658 138.208 42.3747 138.234 42.3747C138.26 42.3747 138.285 42.3658 138.306 42.3492C138.327 42.3327 138.343 42.3093 138.351 42.2823C138.42 42.0374 138.475 41.8078 138.544 41.5783C138.547 41.5461 138.54 41.5138 138.524 41.4869C138.508 41.46 138.484 41.4403 138.456 41.4311C138.428 41.422 138.398 41.4241 138.371 41.437C138.345 41.4499 138.323 41.4729 138.31 41.5018V41.5783Z" fill="#B98D58"/>
<path id="Vector_25" d="M172.299 55.3509C165.493 66.4762 156.317 77.326 144.427 81.1671C133.047 84.8245 118.402 86.0028 109.901 74.954C109.501 74.449 108.688 75.1224 109.06 75.6733C116.197 86.569 130.967 86.1711 141.548 83.4778C154.14 80.2795 167.49 69.0471 172.685 55.5957C172.714 55.5389 172.722 55.4716 172.706 55.4084C172.691 55.3453 172.653 55.2915 172.602 55.2591C172.551 55.2266 172.49 55.218 172.433 55.2353C172.376 55.2525 172.328 55.2941 172.299 55.3509Z" fill="#B98D58"/>
<path id="Vector_26" d="M112.298 66.0324C121.352 60.0007 131.124 55.4109 141.327 52.3975C144.992 51.3262 149.125 51.0202 152.611 49.2297C156.744 47.0873 159.224 42.4505 163.881 41.2722C164.459 41.1192 164.211 40.1092 163.619 40.2622C159.32 41.3793 157.598 44.8531 153.975 47.2863C149.552 50.3469 143.738 50.5305 138.82 52.1526C129.383 55.2186 120.387 59.7634 112.105 65.6499C112.068 65.6816 112.042 65.7273 112.033 65.7786C112.024 65.8298 112.032 65.883 112.056 65.9281C112.079 65.9732 112.117 66.0072 112.162 66.0236C112.206 66.04 112.255 66.0377 112.298 66.0171V66.0324Z" fill="#B98D58"/>
<path id="Vector_27" d="M163.082 98.7042C148.381 96.3017 122.562 96.8985 116.06 115.66C110.163 132.876 128.073 142.716 140.473 144.277C149.649 145.44 159.5 145.516 168.4 142.501C174.765 140.344 183.004 136.044 184.699 128.086C188.019 112.569 171.472 98.796 159.445 97.48C158.77 97.48 158.604 98.689 159.279 98.8114C170.976 100.831 192.07 117.512 180.882 133.09C172.754 144.414 154.388 144.139 142.705 142.899C135.816 142.165 128.308 140.65 122.852 135.431C115.398 128.316 114.585 116.915 121.722 109.156C131.793 98.2757 150.09 97.6636 163.054 99.3929C163.371 99.3929 163.454 98.7961 163.054 98.7502L163.082 98.7042Z" fill="#B98D58"/>
<path id="Vector_28" d="M161.456 97.2352C157.984 97.2352 154.484 97.0362 151.012 97.3576C150.941 97.3743 150.878 97.4177 150.832 97.4803C150.786 97.543 150.761 97.6213 150.761 97.7019C150.761 97.7826 150.786 97.8608 150.832 97.9235C150.878 97.9862 150.941 98.0295 151.012 98.0463C154.484 98.2452 157.984 97.9544 161.456 97.7708C161.51 97.7563 161.558 97.722 161.592 97.6734C161.627 97.6249 161.646 97.5648 161.646 97.503C161.646 97.4411 161.627 97.3811 161.592 97.3325C161.558 97.284 161.51 97.2497 161.456 97.2352Z" fill="#B98D58"/>
<path id="Vector_29" d="M116.872 113.946C113.676 118.935 119.958 121.108 117.878 125.791C117.806 125.925 117.769 126.078 117.769 126.234C117.769 126.391 117.806 126.544 117.878 126.678C118.057 127 118.25 127.306 118.443 127.612C118.842 128.254 120.055 128.117 119.945 127.153C118.567 115.813 150.916 115.522 156.744 117.848C159.995 119.149 160.877 120.312 164.363 120.052C165.507 119.96 186.062 116.838 183.183 123.74C183.127 123.871 183.095 124.013 183.09 124.158C183.085 124.303 183.107 124.447 183.153 124.582C183.2 124.718 183.271 124.841 183.362 124.945C183.452 125.049 183.561 125.132 183.682 125.188C183.802 125.244 183.931 125.272 184.062 125.271C184.192 125.27 184.321 125.239 184.441 125.181C184.56 125.123 184.668 125.038 184.757 124.933C184.846 124.827 184.915 124.703 184.96 124.566C186.476 119.853 180.827 118.032 177.686 117.313C174.555 116.597 171.332 116.529 168.179 117.114C164.845 117.711 162.847 118.399 159.472 117.114C157.364 116.303 158.576 116.134 156.4 115.507C148.712 113.273 137.897 115.905 130.222 117.389C124.863 118.415 117.644 119.455 118.388 127.168L119.889 126.709C120.328 125.529 120.839 124.384 121.419 123.281C121.487 123.156 121.523 123.014 121.523 122.868C121.523 122.722 121.487 122.579 121.419 122.455C119.71 119.715 115.99 119.287 117.437 114.191C117.533 113.839 117.106 113.686 116.927 113.961L116.872 113.946Z" fill="#B98D58"/>
<path id="Vector_30" d="M179.629 118.093C181.116 120.328 183.335 116.425 183.404 114.864C183.528 112.339 181.144 108.881 178.678 109.447C178.508 109.499 178.354 109.6 178.231 109.739C178.108 109.878 178.019 110.051 177.975 110.24C177.93 110.429 177.931 110.627 177.977 110.816C178.023 111.004 178.113 111.176 178.237 111.314C179.105 112.538 180.8 112.645 181.185 114.375C181.571 116.104 180.166 116.548 179.629 117.741C179.604 117.785 179.591 117.835 179.591 117.887C179.591 117.938 179.604 117.988 179.629 118.032V118.093Z" fill="#B98D58"/>
<path id="Vector_31" d="M167.821 118.613C160.739 119.761 156.179 117.221 149.621 114.879C147.029 113.96 144.259 113.855 141.616 114.573C137.635 115.507 133.35 115.537 129.534 116.471C128.869 116.511 128.224 116.742 127.664 117.142C127.104 117.542 126.647 118.096 126.337 118.751C126.264 118.893 126.23 119.056 126.24 119.219C126.25 119.382 126.304 119.538 126.394 119.668C126.483 119.797 126.606 119.894 126.746 119.946C126.885 119.998 127.036 120.003 127.178 119.96C129.768 118.858 132.441 119.7 135.127 119.394C139.977 118.843 143.89 116.134 148.905 117.741C151.977 118.736 154.416 120.802 157.722 121.077C161.029 121.353 164.611 120.128 167.986 119.271C168.386 119.18 168.207 118.552 167.821 118.613Z" fill="#B98D58"/>
<path id="Vector_32" d="M115.825 120.618C117.561 123.25 116.555 127.306 117.437 130.336C118.486 133.231 120.201 135.769 122.411 137.696C126.976 142.094 132.431 145.202 138.31 146.756C151.646 150.398 166.016 145.225 177.479 137.574C178.237 137.069 177.741 135.569 176.845 135.921C164.115 140.91 152.928 148.057 138.944 144.261C132.727 142.703 127.011 139.29 122.411 134.391C118.581 129.938 120.22 123.847 116.707 119.792C116.252 119.272 115.329 119.976 115.77 120.588L115.825 120.618Z" fill="#B98D58"/>
<path id="Vector_33" d="M175.481 139.456C166.044 149.602 152.625 149.571 140.638 146.021C128.652 142.471 114.985 137.299 116.858 120.572C116.855 120.41 116.804 120.253 116.713 120.126C116.622 119.999 116.497 119.907 116.356 119.866C116.214 119.824 116.065 119.835 115.929 119.896C115.794 119.957 115.68 120.066 115.605 120.205C114.654 122.654 114.475 124.153 115.977 126.326C116.238 126.709 116.845 126.326 116.583 125.928C114.902 123.342 115.04 120.481 114.985 124.918C115.005 126.095 115.144 127.265 115.398 128.407C115.898 131.068 116.924 133.571 118.401 135.738C122.617 141.859 130.333 144.078 136.615 146.235C149.883 150.75 165.3 151.515 175.633 139.609C175.646 139.586 175.651 139.558 175.648 139.531C175.645 139.504 175.634 139.478 175.617 139.459C175.599 139.439 175.576 139.427 175.552 139.424C175.527 139.42 175.502 139.427 175.481 139.441V139.456Z" fill="#B98D58"/>
<path id="Vector_34" d="M180.924 110.886C181.56 111.12 182.117 111.565 182.518 112.162C182.92 112.758 183.147 113.477 183.169 114.222C183.169 115.645 182.315 116.41 181.613 117.451C181.551 117.568 181.515 117.7 181.507 117.836C181.499 117.971 181.519 118.107 181.566 118.233C181.612 118.358 181.684 118.471 181.776 118.56C181.868 118.65 181.977 118.716 182.095 118.751C182.453 118.95 182.852 119.039 183.252 119.011C183.297 119.011 183.342 118.998 183.382 118.976C183.423 118.953 183.458 118.921 183.486 118.882C183.513 118.842 183.533 118.796 183.542 118.747C183.552 118.698 183.552 118.647 183.542 118.598C183.417 118.097 183.18 117.639 182.853 117.267L182.508 118.797C183.302 118.344 183.935 117.606 184.305 116.704C184.675 115.801 184.761 114.787 184.547 113.824C184.345 112.922 183.908 112.107 183.29 111.481C182.672 110.855 181.902 110.445 181.075 110.304C181 110.282 180.921 110.293 180.853 110.336C180.786 110.379 180.737 110.45 180.717 110.534C180.697 110.617 180.707 110.705 180.746 110.78C180.785 110.855 180.849 110.909 180.924 110.931V110.886Z" fill="#B98D58"/>
<path id="Vector_35" d="M161.139 97.6179C165.127 99.1325 168.893 101.293 172.312 104.03C176.06 106.953 183.445 111.176 181.778 117.42C181.736 117.588 181.751 117.768 181.82 117.925C181.889 118.083 182.007 118.207 182.152 118.274C182.297 118.342 182.46 118.348 182.609 118.292C182.758 118.236 182.884 118.122 182.962 117.971C185.318 113.089 181.585 109.493 178.292 106.723C173.112 102.377 167.628 98.735 161.235 97.22C161.188 97.2058 161.137 97.2131 161.095 97.2404C161.052 97.2676 161.021 97.3126 161.008 97.3654C160.995 97.4181 161.002 97.4744 161.026 97.5217C161.051 97.5691 161.091 97.6037 161.139 97.6179Z" fill="#B98D58"/>
<path id="Vector_36" d="M124.56 125.025C124.77 123.551 125.34 122.168 126.207 121.027C127.074 119.887 128.205 119.031 129.478 118.552C129.544 118.532 129.605 118.496 129.657 118.447C129.71 118.398 129.752 118.337 129.782 118.269C129.811 118.2 129.827 118.126 129.829 118.05C129.831 117.974 129.818 117.899 129.791 117.829C129.765 117.759 129.725 117.696 129.675 117.644C129.625 117.593 129.565 117.553 129.501 117.529C129.436 117.505 129.367 117.496 129.299 117.504C129.231 117.511 129.165 117.535 129.106 117.573C127.808 118.255 126.69 119.295 125.858 120.595C125.025 121.894 124.507 123.409 124.353 124.995C124.353 125.117 124.532 125.148 124.56 124.995V125.025Z" fill="#B98D58"/>
<path id="Vector_37" d="M147.265 123.801C149.222 122.271 151.22 118.552 149.484 115.981C149.323 115.77 149.125 115.597 148.902 115.473C148.679 115.349 148.436 115.277 148.187 115.261C147.938 115.245 147.689 115.286 147.454 115.381C147.22 115.476 147.006 115.623 146.824 115.813C146.246 116.486 146.466 117.343 145.984 118.139C145.254 119.21 143.807 119.425 142.691 119.777C142.347 119.884 142.498 120.496 142.829 120.373C144.207 119.807 146.094 119.593 146.797 117.956C147.155 117.129 147.679 116.425 148.643 117.053C149.608 117.68 149.318 119.18 149.153 120.113C148.861 121.53 148.177 122.809 147.197 123.771C147.197 123.771 147.196 123.893 147.265 123.847V123.801Z" fill="#B98D58"/>
<path id="Vector_38" d="M167.531 110.518C165.837 110.641 165.189 112.049 164.335 113.579C163.93 114.26 163.402 114.841 162.786 115.286C162.17 115.731 161.478 116.03 160.753 116.165C159.623 116.41 158.741 116.165 157.708 116.869C156.675 117.573 156.923 120.067 158.452 119.93C160.257 119.761 161.841 118.078 163.15 116.762C163.771 116.136 164.313 115.421 164.762 114.635C165.561 113.242 165.851 111.406 167.6 111.115C167.876 111.115 167.807 110.564 167.531 110.579V110.518Z" fill="#B98D58"/>
<path id="Vector_39" d="M126.31 108.207C130.531 104.672 135.618 102.639 140.9 102.377C141.327 102.377 141.327 101.612 140.9 101.642C135.487 101.948 130.306 104.174 126.117 107.993C125.979 108.116 126.117 108.376 126.31 108.269V108.207Z" fill="#B98D58"/>
<path id="Vector_40" d="M131.229 107.044C132.042 106.565 132.896 106.176 133.777 105.881C134.563 105.636 135.376 105.56 136.161 105.315C136.205 105.315 136.247 105.296 136.278 105.261C136.309 105.227 136.326 105.18 136.326 105.131C136.326 105.083 136.309 105.036 136.278 105.002C136.247 104.967 136.205 104.948 136.161 104.948C134.37 105.058 132.634 105.674 131.118 106.738C131.082 106.761 131.055 106.798 131.043 106.843C131.031 106.887 131.036 106.935 131.056 106.975C131.076 107.016 131.11 107.046 131.15 107.059C131.19 107.072 131.233 107.067 131.27 107.044H131.229Z" fill="#B98D58"/>
<path id="Vector_41" d="M132 108.713C132.755 108.641 133.495 108.435 134.191 108.1C134.411 107.993 134.191 107.626 133.998 107.733C133.366 108.053 132.691 108.254 132 108.33C131.78 108.33 131.78 108.743 132 108.713Z" fill="#B98D58"/>
<path id="Vector_42" d="M165.121 130.764C167.281 130.259 169.39 129.516 171.417 128.545C171.457 128.509 171.485 128.46 171.497 128.405C171.509 128.35 171.504 128.292 171.484 128.24C171.464 128.189 171.429 128.145 171.384 128.118C171.34 128.09 171.289 128.079 171.238 128.086C169.158 128.744 167.105 129.831 165.08 130.58C165.058 130.58 165.037 130.59 165.021 130.607C165.006 130.624 164.997 130.648 164.997 130.672C164.997 130.697 165.006 130.72 165.021 130.737C165.037 130.754 165.058 130.764 165.08 130.764H165.121Z" fill="#B98D58"/>
<path id="Vector_43" d="M169.006 131.453L169.984 131.009C170.411 130.81 170.232 130.03 169.792 130.229L168.813 130.688C168.386 130.871 168.579 131.667 169.006 131.453Z" fill="#B98D58"/>
<path id="Vector_44" d="M171.045 132.585H171.334C171.706 132.662 171.858 132.034 171.486 131.958H171.196C170.824 131.881 170.673 132.509 171.045 132.585Z" fill="#B98D58"/>
<path id="Vector_45" d="M130.456 135.814C134.399 138.942 138.966 140.958 143.765 141.69C144.041 141.69 144.096 141.216 143.834 141.17C139.103 140.4 134.583 138.482 130.594 135.554C130.443 135.447 130.319 135.707 130.456 135.814Z" fill="#B98D58"/>
<path id="Vector_46" d="M146.99 140.787C147.048 140.773 147.099 140.736 147.136 140.685C147.173 140.634 147.193 140.57 147.193 140.504C147.193 140.439 147.173 140.375 147.136 140.324C147.099 140.272 147.048 140.236 146.99 140.221C146.952 140.211 146.912 140.211 146.873 140.221C146.835 140.23 146.799 140.249 146.768 140.277C146.737 140.304 146.712 140.338 146.695 140.378C146.677 140.417 146.669 140.461 146.669 140.504C146.669 140.548 146.677 140.591 146.695 140.631C146.712 140.67 146.737 140.705 146.768 140.732C146.799 140.759 146.835 140.779 146.873 140.788C146.912 140.798 146.952 140.797 146.99 140.787Z" fill="#B98D58"/>
<path id="Vector_47" d="M162.71 104.902L164.211 105.177C164.255 105.192 164.302 105.196 164.347 105.189C164.393 105.182 164.436 105.164 164.475 105.137C164.513 105.109 164.546 105.072 164.571 105.029C164.595 104.986 164.611 104.938 164.617 104.887C164.623 104.837 164.62 104.785 164.606 104.736C164.592 104.688 164.569 104.643 164.539 104.605C164.508 104.567 164.47 104.537 164.428 104.517C164.386 104.497 164.34 104.487 164.294 104.489L162.778 104.366C162.721 104.369 162.666 104.395 162.623 104.438C162.581 104.481 162.553 104.539 162.545 104.603C162.537 104.666 162.549 104.731 162.579 104.785C162.609 104.84 162.655 104.881 162.71 104.902Z" fill="#B98D58"/>
<path id="Vector_48" d="M165.272 107.427C165.701 107.496 166.138 107.496 166.567 107.427C166.801 107.427 166.746 107.029 166.567 106.953C166.145 106.823 165.709 106.761 165.272 106.769C164.9 106.769 164.914 107.335 165.272 107.381V107.427Z" fill="#B98D58"/>
<path id="Vector_49" d="M151.495 110.901C150.31 112.442 148.773 113.6 147.045 114.252C145.502 114.757 143.835 114.757 142.347 115.415C141.934 115.599 141.92 116.41 142.457 116.349C144.235 116.212 145.97 115.681 147.56 114.787C149.15 113.894 150.563 112.655 151.716 111.146C151.84 110.977 151.633 110.748 151.495 110.901Z" fill="#B98D58"/>
<path id="Vector_50" d="M152.487 109.217L152.087 109.799C151.991 109.937 152.198 110.059 152.294 109.921L152.694 109.34C152.791 109.202 152.584 109.08 152.487 109.217Z" fill="#B98D58"/>
<path id="Vector_51" d="M179.725 135.676C170.205 142.961 158.494 149.449 146.659 148.699C134.824 147.949 119.504 142.915 115.109 128.974C115.065 128.829 114.972 128.709 114.851 128.638C114.729 128.567 114.587 128.55 114.455 128.591C114.323 128.632 114.21 128.728 114.139 128.859C114.068 128.99 114.046 129.146 114.075 129.295C117.162 142.241 131.063 147.812 141.63 149.541C154.402 151.638 170.687 146.48 179.918 136.074C180.083 135.875 179.849 135.508 179.642 135.676H179.725Z" fill="#B98D58"/>
<path id="Vector_52" d="M120.303 121.536C130.147 119.702 140.163 119.285 150.103 120.297C154.237 120.725 158.576 122.24 162.82 122.103C167.518 121.934 171.541 118.384 176.363 119.164C176.942 119.256 177.204 118.262 176.611 118.17C173.249 117.634 171.238 118.721 168.014 119.853C161.938 121.996 156.207 119.853 150.103 119.333C140.113 118.296 130.039 118.899 120.206 121.123C119.958 121.123 120.069 121.582 120.303 121.536Z" fill="#B98D58"/>
<path id="Vector_53" d="M3.37385 61.5486C4.64138 50.6988 19.6037 56.8047 25.5004 55.7793C31.3971 54.754 35.6406 51.5863 41.7853 51.5404C47.3927 51.5404 52.2149 51.9842 57.5605 49.9183C60.6329 48.7247 73.4321 42.2668 72.3299 52.0761C72.2335 52.9636 73.5147 52.9636 73.5974 52.0761C74.1347 46.7659 71.9028 45.358 67.4527 45.4498C65.2266 45.5481 63.0258 46.0123 60.9222 46.8271C56.665 48.3574 53.3308 50.1938 48.7154 50.3774C46.4145 50.4692 44.0999 50.1479 41.8267 50.1479C38.3592 49.9797 34.8956 50.5672 31.6314 51.8771C24.8942 54.6929 20.1686 53.8818 13.3487 53.7288C8.47153 53.6216 3.0019 55.2591 2.54724 61.5027C2.54724 62.0536 3.26366 62.023 3.31877 61.5027L3.37385 61.5486Z" fill="#B98D58"/>
<path id="Vector_54" d="M3.20881 59.5286C-4.38255 77.4485 30.7637 80.1571 39.4572 79.2695C49.2943 78.2748 57.9465 72.1689 65.6343 65.7111C70.7458 61.4262 75.6505 55.3968 72.9501 47.8678C72.6746 47.1026 71.5724 47.3933 71.8066 48.2197C75.8296 62.5127 51.788 75.4591 41.9096 77.3873C33.7534 78.9941 -2.99103 76.6374 3.67724 59.85C3.81502 59.4674 3.33283 59.1461 3.18127 59.5286H3.20881Z" fill="#B98D58"/>
<path id="Vector_55" d="M6.62502 56.0092C3.20822 58.626 5.57791 62.1303 8.23695 64.288C15.663 70.4093 25.8721 72.6741 34.9376 72.2303C43.9515 71.6334 52.7203 68.7377 60.5636 63.7678C64.9035 61.1203 74.6993 55.7184 73.1149 48.6331C72.9909 48.021 72.1367 48.2811 72.2745 48.8932C73.8451 55.902 61.7761 62.2222 57.1193 64.6859C51.8222 67.5474 46.1713 69.5176 40.3521 70.5317C34.5161 71.5404 28.5634 71.3589 22.7859 69.9961C19.7824 69.2768 1.03138 62.7884 6.79034 56.3458C6.94189 56.1775 6.79032 55.8714 6.55611 56.0092H6.62502Z" fill="#B98D58"/>
<path id="Vector_56" d="M71.2971 46.9955C69.1065 39.2521 66.2132 33.2993 59.0903 30.3152C50.7274 26.8108 39.8019 27.2546 31.1497 28.4176C22.7868 29.5807 -4.02407 41.1497 5.59257 54.7541C6.25389 55.6876 7.4112 54.3868 6.76366 53.4686C1.03225 45.3734 13.3768 37.6606 18.6535 34.5694C25.2529 30.6978 32.183 29.7796 39.5539 29.6878C44.9684 29.6878 50.5759 29.4888 55.9353 30.8202C64.2018 32.9014 68.0732 38.7318 70.9251 47.1026C71.0078 47.3627 71.366 47.2556 71.2971 46.9955Z" fill="#B98D58"/>
<path id="Vector_57" d="M70.0158 46.1078C66.2959 43.7358 62.6311 43.3379 58.3739 43.445C51.1407 43.6287 43.8249 44.2102 36.6055 44.9753C32.1523 45.3583 27.7863 46.5526 23.6823 48.5103C18.0749 51.2343 12.0541 51.1578 6.57073 54.4785C5.84052 54.9223 6.48808 56.1771 7.23206 55.7333C12.0679 52.7952 16.8762 53.1318 21.8637 51.1424C26.8511 49.1531 30.9154 47.1178 36.6055 46.5516C41.8134 46.0159 47.0488 45.7711 52.2705 45.2814C58.1948 44.7305 64.1604 43.7511 69.754 46.6434C70.0571 46.8117 70.3326 46.322 70.0158 46.1384V46.1078Z" fill="#B98D58"/>
<path id="Vector_58" d="M8.85697 39.8796C3.12556 44.5623 -1.917 52.4586 2.46423 60.2479C2.91888 61.0589 4.09 60.2479 3.62157 59.498C-0.511662 52.2903 4.07622 44.9449 9.13254 40.3386C9.36675 40.1244 9.06363 39.6653 8.81564 39.8796H8.85697Z" fill="#B98D58"/>
<path id="Vector_59" d="M38.1759 45.7559C40.7567 45.0205 43.0943 43.4807 44.9131 41.3181C44.9303 41.291 44.9391 41.2584 44.9381 41.2252C44.9372 41.1921 44.9267 41.1602 44.908 41.1343C44.8894 41.1084 44.8637 41.09 44.8348 41.0817C44.8058 41.0735 44.7753 41.0759 44.7477 41.0885C42.502 42.6188 40.7247 44.6541 38.1346 45.5876C38.1198 45.5948 38.1073 45.6065 38.0985 45.6215C38.0896 45.6364 38.085 45.6539 38.085 45.6718C38.085 45.6897 38.0896 45.7071 38.0985 45.7221C38.1073 45.737 38.1198 45.7488 38.1346 45.7559H38.1759Z" fill="#B98D58"/>
<path id="Vector_60" d="M46.5794 39.6348L46.9926 39.2063C47.0034 39.1982 47.0124 39.1873 47.0187 39.1747C47.025 39.162 47.0285 39.1478 47.029 39.1333C47.0294 39.1188 47.0268 39.1044 47.0213 39.0912C47.0157 39.0781 47.0074 39.0666 46.9971 39.0577C46.9868 39.0488 46.9748 39.0427 46.962 39.04C46.9491 39.0372 46.9359 39.0379 46.9233 39.042C46.9108 39.046 46.8993 39.0533 46.8898 39.0633C46.8803 39.0732 46.873 39.0855 46.8686 39.0992L46.5519 39.6042L46.5794 39.6348Z" fill="#B98D58"/>
<path id="Vector_61" d="M25.7485 54.9378C28.5892 54.2191 31.5633 54.5467 34.2216 55.8713C35.4765 56.2849 36.6905 56.8387 37.845 57.524C38.7657 58.6314 39.4943 59.918 39.9943 61.3192C40.0907 61.5181 40.3525 61.3192 40.3112 61.1662C39.5121 57.4781 38.6303 56.7436 35.4891 55.4275C32.4006 53.8753 28.9206 53.5721 25.652 54.5706C25.4316 54.5706 25.528 54.9837 25.7485 54.9378Z" fill="#B98D58"/>
<path id="Vector_62" d="M62.1207 51.2343C60.2684 49.946 58.1943 49.1016 56.0311 48.7552C55.0942 48.5716 55.0391 50.1937 55.8658 50.0866C57.985 49.88 60.1121 50.3696 61.983 51.4945C61.9983 51.5088 62.0163 51.5192 62.0356 51.525C62.0549 51.5308 62.0752 51.5319 62.0949 51.5281C62.1146 51.5243 62.1334 51.5158 62.1499 51.5032C62.1664 51.4905 62.1801 51.4741 62.1903 51.4549C62.2004 51.4357 62.2067 51.4143 62.2087 51.3922C62.2106 51.37 62.2082 51.3477 62.2016 51.3267C62.1949 51.3057 62.1843 51.2865 62.1703 51.2706C62.1564 51.2546 62.1395 51.2423 62.1207 51.2343Z" fill="#B98D58"/>
<path id="Vector_63" d="M19.0389 40.002C21.0721 38.8229 23.1758 37.8003 25.3352 36.9414C25.6383 36.819 25.5005 36.2835 25.1974 36.4059C23.0442 37.3823 20.9543 38.5225 18.9425 39.8184C18.9238 39.8343 18.9109 39.8572 18.9064 39.8828C18.9018 39.9084 18.9058 39.935 18.9176 39.9575C18.9295 39.9801 18.9484 39.9971 18.9707 40.0053C18.993 40.0135 19.0172 40.0123 19.0389 40.002Z" fill="#B98D58"/>
<path id="Vector_64" d="M22.4005 40.0326C23.3828 39.5344 24.4207 39.1844 25.4866 38.9919C25.7071 38.9919 25.6657 38.5023 25.4177 38.5329C24.2988 38.6927 23.2233 39.1152 22.2627 39.7724C22.1112 39.8642 22.2627 40.1091 22.4005 40.0326Z" fill="#B98D58"/>
<path id="Vector_65" d="M24.5907 42.1905L26.3404 41.41C26.3721 41.3949 26.4008 41.3731 26.4248 41.3457C26.4489 41.3183 26.4679 41.286 26.4806 41.2504C26.4934 41.2149 26.4998 41.1769 26.4994 41.1386C26.499 41.1004 26.4918 41.0626 26.4782 41.0274C26.4646 40.9923 26.445 40.9604 26.4203 40.9337C26.3957 40.9069 26.3665 40.8859 26.3345 40.8717C26.3025 40.8575 26.2683 40.8504 26.2339 40.8509C26.1994 40.8513 26.1654 40.8593 26.1338 40.8744L24.4391 41.762C24.2187 41.8691 24.4392 42.2823 24.5907 42.1905Z" fill="#B98D58"/>
<path id="Vector_66" d="M54.9705 58.0902L57.2575 57.7688C57.3073 57.7709 57.357 57.7609 57.403 57.7396C57.449 57.7183 57.4903 57.6862 57.524 57.6454C57.5578 57.6046 57.5831 57.5562 57.5984 57.5035C57.6136 57.4507 57.6184 57.395 57.6123 57.34C57.6063 57.285 57.5896 57.2322 57.5633 57.1851C57.5371 57.138 57.5019 57.0978 57.4603 57.0673C57.4187 57.0368 57.3716 57.0166 57.3224 57.0083C57.2731 56.9999 57.2228 57.0036 57.1749 57.0189L54.9016 57.5852C54.6674 57.5852 54.7087 58.1361 54.9705 58.0902Z" fill="#B98D58"/>
<path id="Vector_67" d="M56.0592 59.2226L57.1476 59.1155C57.2578 59.1155 57.2578 58.9013 57.1476 58.9166L56.0592 59.0543C56.0466 59.0482 56.0328 59.0457 56.0192 59.0469C56.0055 59.0482 55.9923 59.0533 55.9809 59.0616C55.9694 59.07 55.9599 59.0814 55.9534 59.0948C55.9469 59.1082 55.9435 59.1232 55.9435 59.1384C55.9435 59.1537 55.9469 59.1687 55.9534 59.1821C55.9599 59.1955 55.9694 59.2069 55.9809 59.2153C55.9923 59.2236 56.0055 59.2286 56.0192 59.2299C56.0328 59.2312 56.0466 59.2287 56.0592 59.2226Z" fill="#B98D58"/>
<path id="Vector_68" d="M4.91728 58.2739C2.1618 64.946 9.13318 68.8789 13.5833 71.0825C20.6787 74.6022 28.4216 77.0966 36.2609 76.714C44.1003 76.3315 50.8512 72.5516 57.4782 68.328C63.3887 64.5634 69.0237 60.4316 72.4405 53.683C72.442 53.6646 72.4385 53.6461 72.4304 53.6299C72.4223 53.6138 72.41 53.6007 72.3951 53.5924C72.3802 53.5842 72.3634 53.5811 72.3469 53.5836C72.3305 53.5861 72.315 53.5941 72.3027 53.6065C69.3681 59.8501 64.0363 63.7983 58.6906 67.1956C53.345 70.5928 47.6686 74.1431 41.4826 75.551C34.8529 76.8762 28.0306 76.3503 21.6293 74.0207C16.1183 72.1537 1.80359 67.5016 5.09639 58.4116C5.09639 58.2892 4.95861 58.2127 4.91728 58.3198V58.2739Z" fill="#B98D58"/>
<path id="Vector_69" d="M7.16284 62.9261C11.4388 66.9968 16.4487 70.0052 21.8569 71.7498C27.265 73.4944 32.9464 73.9347 38.5203 73.0414C44.8746 71.8114 51.0455 69.6125 56.858 66.507C62.4792 63.7219 68.7342 61.0439 72.7021 55.5807C72.8123 55.443 72.7021 55.2593 72.5368 55.3817C68.8444 60.2481 63.485 62.7272 58.3873 65.3134C52.7968 68.3299 46.9117 70.6201 40.8487 72.1385C34.9854 73.4336 28.9365 73.2681 23.1378 71.6539C17.339 70.0397 11.9348 67.0171 7.31442 62.8037C7.30718 62.7967 7.29876 62.7912 7.28965 62.7878C7.28054 62.7844 7.27091 62.783 7.26131 62.7837C7.25172 62.7844 7.24235 62.7872 7.23373 62.792C7.22511 62.7967 7.2174 62.8033 7.21107 62.8113C7.20474 62.8193 7.1999 62.8287 7.19681 62.8388C7.19373 62.8489 7.19247 62.8596 7.19311 62.8703C7.19375 62.881 7.19629 62.8914 7.20056 62.9009C7.20482 62.9105 7.21073 62.9191 7.21796 62.9261H7.16284Z" fill="#B98D58"/>
<path id="Vector_70" d="M5.67456 57.0802C2.43687 59.9725 3.33238 65.0837 5.60565 68.2514C8.85712 72.8423 13.2246 76.1171 18.5978 76.0253C18.9422 76.0253 18.9422 75.4132 18.5978 75.4285C16.6103 75.4298 14.6434 74.9813 12.8171 74.1104C10.9909 73.2396 9.3434 71.9645 7.97537 70.3632C4.903 67.0424 1.89953 61.3038 5.8261 57.2332C5.92254 57.1414 5.82612 56.9884 5.67456 57.0802Z" fill="#B98D58"/>
<path id="Vector_71" d="M3.60795 48.0667C3.07855 49.5822 3.02592 51.252 3.4586 52.8049C3.89129 54.3578 4.7839 55.7026 5.99146 56.6211C6.26701 56.7894 6.57011 56.3762 6.33589 56.1467C5.24987 55.2413 4.43487 53.9932 3.99737 52.5654C3.55987 51.1376 3.52016 49.5964 3.88347 48.1432C3.88347 47.9443 3.67684 47.8831 3.60795 48.0667Z" fill="#B98D58"/>
<path id="Vector_72" d="M2.98759 48.8165C2.40998 50.355 2.25748 52.0495 2.54943 53.6846C2.84138 55.3196 3.5646 56.8212 4.6271 57.9983C4.86132 58.2738 5.23334 57.8606 4.99912 57.6004C3.98153 56.4753 3.26792 55.0562 2.93919 53.5037C2.61047 51.9512 2.67975 50.3275 3.13916 48.8165C3.13916 48.7094 3.02892 48.6788 2.98759 48.8165Z" fill="#B98D58"/>
<path id="Vector_73" d="M13.7205 53.4074C16.5336 53.9594 19.4271 53.7013 22.1248 52.6576C25.5278 51.0202 28.6415 48.9084 32.1823 47.5158C32.444 47.4087 32.3338 46.9343 32.0721 47.0414C29.4565 47.9921 26.921 49.1955 24.4945 50.6376C21.2329 52.7256 17.469 53.6398 13.7205 53.2544C13.6241 53.2544 13.6379 53.3921 13.7205 53.4074Z" fill="#B98D58"/>
<path id="Vector_74" d="M19.48 53.4075C21.9599 53.7916 24.4864 53.3328 26.727 52.0914C31.0806 49.9337 34.6352 47.424 39.5813 47.2863C43.9901 47.1639 48.3575 47.5617 52.7663 47.2863C57.1751 47.0108 61.5701 46.414 65.9375 45.6795C66.1442 45.6795 66.0891 45.251 65.9375 45.2816C61.5701 45.7866 57.2164 46.5058 52.8214 46.8119C48.4264 47.118 44.059 46.8119 39.6364 46.919C36.7613 46.9901 33.9369 47.7744 31.37 49.2145C27.595 51.2498 24.0128 53.9584 19.6178 53.3003C19.6178 53.3003 19.5489 53.4075 19.6178 53.4228L19.48 53.4075Z" fill="#B98D58"/>
<path id="Vector_75" d="M66.833 45.0672C63.609 44.6387 60.95 45.863 57.9603 47.026C53.814 48.4269 49.4669 48.9461 45.1473 48.5563C39.3746 48.3727 33.3951 48.5563 28.8624 52.9942C28.6419 53.2085 28.9726 53.5757 29.1931 53.3615C34.704 47.883 42.1438 49.1684 48.9499 49.1072C51.6639 49.1487 54.3677 48.7307 56.9684 47.8677C60.3025 46.6894 63.2233 44.9295 66.833 45.2815C66.9707 45.2815 66.9707 45.0673 66.833 45.052V45.0672Z" fill="#B98D58"/>
<path id="Vector_76" d="M44.2098 44.2258C50.2581 47.2864 56.4028 45.7561 62.7542 44.9144C63.0297 44.9144 63.0297 44.4095 62.7542 44.4401C56.4854 45.3429 50.3545 46.9038 44.2649 44.0728C44.1822 44.0728 44.1271 44.1952 44.2649 44.2258H44.2098Z" fill="#B98D58"/>
<path id="Vector_77" d="M11.4609 53.6369C19.1349 54.5398 25.0592 52.581 32.4715 51.0201C41.1513 49.1685 50.0791 49.1226 58.814 47.73C61.4041 47.3015 65.2343 45.9854 60.1917 46.368C55.1492 46.7506 50.3822 48.2197 45.2294 48.2809C38.2718 48.2809 31.948 50.4233 25.1695 52.2902C24.9268 52.3692 24.7218 52.5509 24.5985 52.7961C24.4753 53.0413 24.4437 53.3306 24.5105 53.6014C24.5773 53.8723 24.7373 54.1031 24.9559 54.2443C25.1745 54.3855 25.4342 54.4257 25.6792 54.3562C32.7333 52.2903 39.2087 50.0867 46.5383 50.1785C52.931 50.1785 59.186 47.8065 65.4409 46.5516C65.5658 46.499 65.6711 46.4011 65.7396 46.2737C65.8081 46.1463 65.8358 45.9969 65.8183 45.8498C65.8007 45.7027 65.7389 45.5666 65.6429 45.4634C65.5469 45.3602 65.4223 45.2961 65.2893 45.2815C56.6233 45.9089 47.9711 46.4904 39.3602 47.7453C29.716 49.1531 21.2842 53.0248 11.4609 53.3003C11.4207 53.3003 11.3822 53.318 11.3538 53.3496C11.3254 53.3811 11.3094 53.424 11.3094 53.4686C11.3094 53.5133 11.3254 53.556 11.3538 53.5876C11.3822 53.6192 11.4207 53.6369 11.4609 53.6369Z" fill="#B98D58"/>
<path id="Vector_78" d="M3.20895 53.3004C2.84419 53.9854 2.60849 54.7455 2.51613 55.5347C2.42377 56.3238 2.47668 57.1256 2.67165 57.8913C2.69559 57.9829 2.73796 58.0672 2.7956 58.1378C2.85325 58.2084 2.92463 58.2635 3.00432 58.2989C3.084 58.3343 3.1699 58.3491 3.2555 58.3421C3.34109 58.3351 3.4241 58.3066 3.49827 58.2586C4.65328 57.5402 5.60692 56.4809 6.25375 55.198C6.3246 55.0427 6.34457 54.8648 6.31022 54.6949C6.27587 54.525 6.18936 54.3737 6.06551 54.2669C5.94167 54.1601 5.78823 54.1045 5.63152 54.1097C5.47481 54.1148 5.32462 54.1804 5.2067 54.2951C4.1386 55.2548 3.24141 56.4278 2.56141 57.7536C2.18942 58.4882 3.14009 59.3911 3.66363 58.6871C4.34695 57.7591 4.96854 56.7771 5.52355 55.7489C5.88176 55.0603 6.54309 53.9891 6.0471 53.178C4.80713 51.0968 2.79562 55.5347 2.3823 56.4069L3.76004 57.065C4.07692 55.9938 4.39383 54.9072 4.69694 53.8207C5.00004 52.7342 3.96673 52.4741 3.40186 52.9791C2.79108 53.4465 2.24758 54.0141 1.78988 54.6624C1.7303 54.7878 1.70465 54.9296 1.71601 55.0708C1.72736 55.212 1.77526 55.3464 1.85391 55.4581C1.93256 55.5697 2.0386 55.6537 2.15925 55.6998C2.2799 55.746 2.41001 55.7525 2.53387 55.7183C3.25486 55.3265 3.91519 54.81 4.49024 54.188L3.20895 53.3463C2.87829 54.4329 2.5752 55.5194 2.2721 56.6059C2.24308 56.7954 2.27226 56.9902 2.35493 57.159C2.4376 57.3279 2.56895 57.461 2.72791 57.5369C2.88688 57.6128 3.0642 57.6271 3.2314 57.5776C3.3986 57.5281 3.54599 57.4176 3.64984 57.2639C3.92539 56.6671 4.21469 56.0856 4.53157 55.5347C4.71404 55.2778 4.87981 55.0067 5.02758 54.7236C5.28935 54.5094 5.2618 54.3258 4.94492 54.188C4.62804 54.0503 4.61426 53.8208 4.55915 54.188C4.21359 54.7164 3.92244 55.2862 3.69117 55.8866C3.36051 56.4529 3.0023 57.0191 2.61653 57.5547L3.71871 58.5034C4.31608 57.278 5.12069 56.192 6.08843 55.3051L5.04137 54.4176C4.5053 55.4889 3.75602 56.4101 2.85073 57.1109L3.66363 57.4782C3.44678 56.8715 3.34348 56.222 3.36006 55.5695C3.37664 54.917 3.51273 54.2752 3.76004 53.683C3.93915 53.2086 3.36051 52.8108 3.12629 53.2698L3.20895 53.3004Z" fill="#B98D58"/>
<path id="Vector_79" d="M4.61406 59.1308C3.64433 61.211 3.3152 63.587 3.67716 65.8948C3.68286 66.0372 3.72501 66.1749 3.79867 66.2917C3.87233 66.4084 3.97445 66.4995 4.09303 66.5541C4.21161 66.6087 4.34176 66.6246 4.4682 66.6C4.59464 66.5754 4.71214 66.5112 4.80692 66.415C6.18466 65.1296 6.10198 65.3132 6.29486 63.2473C6.3913 62.2526 5.11001 62.222 4.83446 63.0178C4.33132 64.1372 4.19368 65.4159 4.44495 66.6356C4.69622 67.8552 5.32084 68.9402 6.2122 69.7052C6.35083 69.8502 6.52801 69.9416 6.71725 69.9654C6.90648 69.9893 7.09763 69.9445 7.26203 69.8377C7.42643 69.7309 7.55524 69.5678 7.62926 69.3729C7.70327 69.178 7.71848 68.9617 7.6726 68.7564C7.19803 66.7594 6.48932 64.8403 5.56466 63.0484C5.13756 62.1761 3.70474 62.5128 3.7874 63.584C4.99982 77.5862 25.3491 79.4532 35.0346 78.7952C48.2656 77.7456 60.5801 70.9038 69.2715 59.7736C69.616 59.3451 69.0511 58.7023 68.7066 59.1308C61.5631 67.9055 51.8374 73.5645 41.2758 75.0919C32.472 76.4691 7.42465 76.9435 5.64736 63.2932L3.91139 64.1196C4.86215 65.6938 5.56127 67.4384 5.97801 69.2767L7.43841 68.3279C7.03887 66.7058 6.63931 65.0837 6.22599 63.4616L4.76559 63.2473C4.84825 61.9313 4.91716 60.6305 4.99982 59.3298C4.99982 59.0543 4.69668 58.8554 4.57268 59.1308H4.61406Z" fill="#B98D58"/>
<path id="Vector_80" d="M5.20622 59.9725C6.10175 68.083 13.9411 71.9547 20.1409 74.2655C29.8326 77.8878 40.3131 77.9736 50.0517 74.5103C50.225 74.4293 50.3657 74.2809 50.4473 74.0928C50.529 73.9048 50.5461 73.6901 50.4953 73.4891C50.4446 73.2881 50.3295 73.1145 50.1717 73.0011C50.0139 72.8876 49.8243 72.842 49.6384 72.8729C36.1779 76.163 12.8114 76.0406 5.55066 59.8653C5.45422 59.6664 5.12355 59.7429 5.1511 59.9725H5.20622Z" fill="#B98D58"/>
<path id="Vector_81" d="M72.2198 48.6942C72.8535 48.3881 73.5011 48.1126 74.1349 47.8525C76.8173 47.034 79.4458 46.0113 82.0018 44.7919C84.9639 43.0626 86.6999 40.354 89.0558 37.9055C91.4968 35.5451 94.2957 33.685 97.3223 32.4117C102.158 30.1316 106.636 28.3565 110.493 24.2859C113.318 21.3018 115.316 18.5319 118.912 16.6344C122.962 14.5378 125.359 15.2418 126.792 20.1234C127.054 20.9957 125.814 21.363 125.58 20.506C125.098 18.8074 119.656 17.9963 118.36 18.4707C116.807 19.2788 115.404 20.4054 114.227 21.7915C112.229 23.8574 110.686 26.3824 108.441 28.1116C104.5 31.2793 99.6369 32.5342 95.3246 34.9061C90.5851 37.5077 88.0225 42.5577 83.5724 45.3428C80.996 46.9802 76.3806 48.0667 72.5505 49.9337C72.4792 49.5089 72.3683 49.0935 72.2198 48.6942Z" fill="#B98D58"/>
<path id="Vector_82" d="M105.947 59.8959C105.809 59.8194 105.699 59.7276 105.547 59.6511C105.161 59.4521 104.776 59.2991 104.39 59.1308C105.434 58.5769 106.442 57.9428 107.407 57.2332C115.674 50.8978 132.73 28.2646 123.816 17.3536C123.705 17.2298 123.642 17.0619 123.642 16.8869C123.642 16.7118 123.705 16.5439 123.816 16.4201C123.928 16.2963 124.079 16.2268 124.236 16.2268C124.394 16.2268 124.545 16.2963 124.656 16.4201C130.002 21.8527 127.577 29.948 124.519 36.008C119.958 45.0979 114.447 54.3715 106.195 59.7582L105.947 59.8959Z" fill="#B98D58"/>
<path id="Vector_83" d="M95.9995 57.1721C95.283 57.1721 94.5253 57.0344 93.7675 56.9885C97.0534 55.6393 100.203 53.9108 103.164 51.8314C108.135 48.2755 112.594 43.9057 116.39 38.8697C119.531 34.7532 128.459 23.4749 124.464 17.7516C124.419 17.7028 124.383 17.6439 124.361 17.5787C124.338 17.5136 124.328 17.4438 124.331 17.374C124.335 17.3042 124.352 17.236 124.381 17.1741C124.41 17.1121 124.451 17.0578 124.5 17.0148C124.55 16.9718 124.607 16.9411 124.668 16.9248C124.73 16.9085 124.793 16.9069 124.855 16.9202C124.917 16.9334 124.975 16.9612 125.027 17.0017C125.078 17.0422 125.121 17.0944 125.153 17.1548C129.286 23.1536 121.722 32.9322 118.47 37.5231C113 45.5001 105.922 51.9416 97.8043 56.3305C97.1981 56.6365 96.5919 56.8967 95.9995 57.1721Z" fill="#B98D58"/>
<path id="Vector_84" d="M74.7548 61.059C74.3552 61.059 73.9557 61.0591 73.5561 60.9366C72.6271 60.7961 71.7069 60.5916 70.8007 60.3245V59.9266C70.8073 59.8043 70.8073 59.6816 70.8007 59.5593C72.4912 59.9889 74.2193 60.2096 75.9534 60.2174L74.7548 61.059Z" fill="#B98D58"/>
<path id="Vector_85" d="M90.337 11.1558C94.6213 9.07281 99.1327 7.62198 103.756 6.84033C112.174 5.61609 117.451 9.61017 122.81 16.4047C122.976 16.6036 122.714 16.9097 122.535 16.7107C116.555 9.94681 110.314 6.62609 101.869 8.7532C98.2939 9.71696 94.8106 11.0596 91.4667 12.7626C91.1707 12.1627 90.7892 11.6201 90.337 11.1558Z" fill="#B98D58"/>
<path id="Vector_86" d="M71.3933 47.0875C73.795 45.3434 76.0705 43.394 78.1994 41.257C81.9193 37.2017 84.7023 33.7127 89.304 30.7439C95.3109 26.8569 101.621 23.3678 107.862 20.0318C112.34 17.6139 116.239 15.7163 121.309 16.2213C121.64 16.2213 121.653 16.8181 121.309 16.8181C114.682 16.6957 109.254 20.7051 103.646 24.0871C99.1273 26.811 94.4843 29.3054 90.0204 32.1365C85.5565 34.9675 82.677 38.5331 79.15 42.3588C76.9333 44.5412 74.5655 46.5265 72.0684 48.2964C71.8998 47.8578 71.6721 47.4502 71.3933 47.0875Z" fill="#B98D58"/>
<path id="Vector_87" d="M91.9624 29.9788C94.0015 27.9588 94.8557 25.296 96.3712 22.8935C96.4538 22.7711 96.6743 22.8935 96.6192 23.0159C95.7402 25.8176 94.1578 28.2814 92.0588 30.1165C91.9899 30.1165 91.8935 30.1165 91.9624 29.9788Z" fill="#B98D58"/>
<path id="Vector_88" d="M97.5151 20.7815C97.5151 20.5672 97.584 20.3683 97.6253 20.1541C97.6666 19.9398 97.8043 20.1541 97.763 20.1541L97.5427 20.7356L97.5151 20.7815Z" fill="#B98D58"/>
<path id="Vector_89" d="M83.8063 43.8431C86.298 41.5673 89.412 40.2992 92.6376 40.2469C96.3024 39.9714 97.4046 40.0632 99.6503 43.3075C99.7468 43.4605 99.5401 43.6747 99.4161 43.5676C98.287 42.3806 96.9162 41.5143 95.4206 41.0426C94.3082 40.9687 93.1921 41.0096 92.0865 41.165C89.1621 41.2043 86.3249 42.2763 83.9854 44.2256C83.8338 44.3481 83.6272 44.0573 83.7787 43.9196L83.8063 43.8431Z" fill="#B98D58"/>
<path id="Vector_90" d="M115.963 24.7144C113.86 24.5193 111.752 25.0141 109.901 26.1376C109.116 26.6426 108.523 25.1276 109.432 24.8827C111.571 24.2264 113.809 24.0701 116.004 24.4237C116.142 24.4237 116.114 24.7144 116.004 24.7144H115.963Z" fill="#B98D58"/>
<path id="Vector_91" d="M111.72 33.5137L113.593 31.9834C113.938 31.6926 114.324 32.3812 113.938 32.6414L111.94 33.9728C111.678 34.1411 111.485 33.7279 111.72 33.529V33.5137Z" fill="#B98D58"/>
<path id="Vector_92" d="M113.249 34.2786L114.199 33.6665C114.296 33.6665 114.392 33.7889 114.296 33.8501L113.331 34.4316C113.249 34.4316 113.166 34.3398 113.249 34.2786Z" fill="#B98D58"/>
<path id="Vector_93" d="M102.268 58.3811C102.75 58.1056 103.232 57.8301 103.714 57.5241C109.528 53.6677 113.703 47.822 117.726 41.8997C121.749 35.9775 125.676 29.6573 126.158 22.0058C126.164 21.9895 126.175 21.9755 126.188 21.9657C126.202 21.9559 126.217 21.9507 126.234 21.9507C126.25 21.9507 126.265 21.9559 126.279 21.9657C126.292 21.9755 126.303 21.9895 126.309 22.0058C125.552 30.3613 121.349 37.0946 116.913 43.6443C112.918 49.5665 108.647 54.9379 102.833 58.5341L102.268 58.3811Z" fill="#B98D58"/>
<path id="Vector_94" d="M98.1075 57.4322L97.2946 57.3251C99.7113 56.144 102.019 54.7038 104.183 53.0249C108.78 49.26 112.985 44.9383 116.721 40.1398C120.758 35.1969 125.277 30.1316 126.999 23.582C126.999 23.4136 127.274 23.4748 127.233 23.582C125.759 29.7032 121.805 34.2941 118.126 38.885C114.049 44.2679 109.426 49.1101 104.349 53.3157C102.383 54.8925 100.295 56.2702 98.1075 57.4322Z" fill="#B98D58"/>
<path id="Vector_95" d="M74.7961 60.9671C73.4505 60.7206 72.117 60.3988 70.8007 60.003V59.8193C72.212 60.2237 73.6425 60.5404 75.0854 60.7681L74.7961 60.9671Z" fill="#B98D58"/>
<path id="Vector_96" d="M72.3852 47.9751C75.953 46.6718 79.0617 44.1557 81.2717 40.7826C82.9674 38.3768 84.8482 36.1392 86.8928 34.0952C87.0995 33.881 87.4026 34.2177 87.1959 34.4319C84.4405 37.3242 82.3739 40.6602 79.8251 43.7055C77.7364 45.8527 75.1904 47.3745 72.4265 48.128C72.4083 48.128 72.3908 48.12 72.3778 48.1057C72.3649 48.0913 72.3577 48.0718 72.3577 48.0516C72.3577 48.0313 72.3649 48.0118 72.3778 47.9974C72.3908 47.9831 72.4083 47.9751 72.4265 47.9751H72.3852Z" fill="#B98D58"/>
<path id="Vector_97" d="M77.7032 45.343C84.4955 43.2159 86.9203 34.1258 93.2303 30.7745C97.212 28.6474 101.387 27.0559 105.313 24.7604C109.24 22.465 113.221 19.6798 117.189 17.1089C117.231 17.0825 117.281 17.0758 117.328 17.0901C117.374 17.1045 117.414 17.1387 117.437 17.1854C117.461 17.2321 117.467 17.2874 117.454 17.339C117.441 17.3907 117.41 17.4345 117.368 17.4609C113.359 20.3073 109.198 22.97 104.969 25.3878C100.739 27.8057 96.3991 29.183 92.4037 31.6009C86.6309 35.0746 84.3715 43.5372 77.7583 45.3736C77.6756 45.3736 77.6481 45.2665 77.7583 45.2512L77.7032 45.343Z" fill="#B98D58"/>
<path id="Vector_98" d="M118.112 16.8793C114.833 18.0729 112.725 20.9193 110.259 23.4136C108.002 25.6089 105.432 27.3724 102.654 28.632C96.5642 31.6007 89.579 33.8809 86.6031 41.1651C86.4791 41.4712 86.0933 41.1651 86.2035 40.905C88.835 34.4165 94.7593 31.7232 100.339 29.1982C104.427 27.5055 108.173 24.9311 111.361 21.6232C113.176 19.3745 115.468 17.6649 118.029 16.6497C118.046 16.6429 118.064 16.6406 118.082 16.6431C118.099 16.6455 118.116 16.6527 118.131 16.664C118.145 16.6753 118.157 16.6903 118.165 16.7078C118.174 16.7253 118.178 16.7447 118.178 16.7645C118.178 16.7842 118.174 16.8037 118.165 16.8212C118.157 16.8387 118.145 16.8537 118.131 16.865C118.116 16.8763 118.099 16.8835 118.082 16.886C118.064 16.8884 118.046 16.8861 118.029 16.8793H118.112Z" fill="#B98D58"/>
<path id="Vector_99" d="M97.0462 25.8622C103.577 25.7397 108.688 21.5314 114.075 17.9199C114.123 17.8895 114.179 17.8812 114.232 17.897C114.285 17.9128 114.33 17.9513 114.358 18.004C114.385 18.0568 114.392 18.1195 114.378 18.1783C114.364 18.2372 114.329 18.2873 114.282 18.3178C108.771 21.9752 103.701 26.107 97.0462 25.9693C97.0314 25.9621 97.0189 25.9504 97.0101 25.9354C97.0012 25.9205 96.9965 25.903 96.9965 25.8851C96.9965 25.8673 97.0012 25.8497 97.0101 25.8348C97.0189 25.8198 97.0314 25.8081 97.0462 25.8009V25.8622Z" fill="#B98D58"/>
<path id="Vector_100" d="M72.192 48.6482C72.1422 48.4538 72.0777 48.2643 71.9991 48.0819C78.9705 44.0572 84.3299 38.4717 90.8604 33.5747C99.0029 27.4535 107.944 22.6024 116.652 17.5831C116.785 17.4978 116.944 17.4749 117.092 17.5194C117.241 17.5639 117.367 17.6721 117.444 17.8202C117.521 17.9684 117.541 18.1443 117.501 18.3093C117.461 18.4744 117.364 18.615 117.23 18.7002C112.367 22.3576 107.807 27.2086 102.434 29.9632C95.3932 33.5747 89.9098 38.135 83.834 43.5217C83.6833 43.6518 83.5032 43.733 83.3135 43.7563C83.1238 43.7796 82.932 43.7442 82.7594 43.6538C82.5868 43.5635 82.44 43.4218 82.3355 43.2445C82.2309 43.0672 82.1725 42.8612 82.1669 42.6494C79.0764 45.0965 75.7262 47.1113 72.192 48.6482Z" fill="#B98D58"/>
<path id="Vector_101" d="M104.349 59.1154C103.866 58.8956 103.369 58.7166 102.861 58.5798C102.379 58.4115 101.897 58.289 101.483 58.1666C102.668 57.5086 103.702 56.8812 104.514 56.3609C114.166 50.2805 121.442 40.4375 124.933 28.739C125.084 28.1881 125.869 28.4329 125.718 28.9685C122.222 41.4688 114.914 52.226 105.052 59.3909L104.349 59.1154Z" fill="#B98D58"/>
<path id="Vector_102" d="M102.874 58.5646C101.914 58.2418 100.939 57.9762 99.9536 57.7689C104.381 55.5821 108.592 52.8896 112.519 49.7348C113.221 49.1686 114.089 50.4234 113.442 51.0661C110.388 54.0989 106.988 56.6715 103.329 58.7176L102.874 58.5646Z" fill="#B98D58"/>
<path id="Vector_103" d="M51.5808 105.545C52.7794 102.882 53.9918 100.235 55.2042 97.5718L58.8002 95.8579C60.1779 95.3376 61.5556 95.0622 62.9334 94.6796C65.0705 94.2171 67.1712 93.5672 69.2159 92.7361C75.1677 89.9969 78.6672 84.3807 85.0324 82.024C89.3861 80.3866 93.9326 79.2848 97.7076 76.2242C100.325 74.1124 111.843 60.9212 113.855 71.3578C114.02 72.2454 115.232 71.8781 115.081 70.9905C114.006 65.7722 111.581 65.1907 107.338 66.9199C104.651 68.177 102.18 69.9426 100.036 72.1382C95.1863 76.5761 90.5433 78.5349 84.7017 80.6773C81.6149 81.656 78.7153 83.2534 76.1459 85.3906C72.9771 88.2064 70.8416 90.8385 66.7635 92.3076C64.7244 93.0422 62.6303 93.3788 60.5361 94.0062C55.342 95.5365 49.3764 98.8114 50.823 105.82C50.9332 106.356 51.6497 106.126 51.567 105.591L51.5808 105.545Z" fill="#B98D58"/>
<path id="Vector_104" d="M50.8092 103.724C48.9355 123.541 83.6684 112.982 91.7282 108.636C100.339 104.045 106.484 95.2306 111.692 86.5844C115.177 80.7846 118.098 72.9648 113.18 67.0731C112.725 66.5375 111.802 67.2721 112.243 67.8689C120.316 79.4992 102.392 99.8675 93.9739 105.652C86.5203 110.763 50.0377 122.485 51.3741 103.724C51.3741 103.311 50.8368 103.326 50.8092 103.724Z" fill="#B98D58"/>
<path id="Vector_105" d="M52.9726 99.1329C49.79 103.969 55.9761 106.172 59.2827 106.922C68.1047 108.793 77.2297 107.657 85.4598 103.663C93.7639 99.6071 101.128 93.5052 106.994 85.8193C110.314 81.5804 117.093 73.6994 113.662 67.8536C113.359 67.3333 112.588 67.8536 112.904 68.3433C118.415 77.8006 96.9226 95.6286 91.1636 99.3166C86.4652 102.375 81.3448 104.552 76.0084 105.759C72.9499 106.432 49.3767 108.636 53.3721 99.3472C53.3887 99.323 53.4005 99.2953 53.4067 99.2657C53.4129 99.2361 53.4134 99.2054 53.4081 99.1756C53.4027 99.1458 53.3918 99.1176 53.3759 99.0929C53.3601 99.0681 53.3396 99.0474 53.316 99.0321C53.2924 99.0168 53.2661 99.0073 53.2389 99.0041C53.2117 99.0009 53.1843 99.0042 53.1583 99.0138C53.1323 99.0233 53.1085 99.0388 53.0883 99.0594C53.0682 99.0799 53.0522 99.105 53.0415 99.1329H52.9726Z" fill="#B98D58"/>
<path id="Vector_106" d="M111.403 66.9659C106.856 60.1713 102.13 55.6111 94.1671 55.657C85.6802 55.657 76.4907 59.697 68.9269 63.5992C61.363 67.5015 38.1618 88.6961 51.5948 98.2605C52.4904 98.9032 53.317 97.3117 52.4353 96.7302C44.0724 90.7926 55.425 77.2189 59.448 72.8422C64.5181 67.3332 70.8144 64.4103 77.3586 61.8241C82.7043 59.7123 88.3806 57.2332 94.1395 57.1414C101.648 56.8965 106.539 61.2119 111.072 67.2719C111.21 67.4556 111.499 67.272 111.375 67.0118L111.403 66.9659Z" fill="#B98D58"/>
<path id="Vector_107" d="M109.956 66.5833C99.7331 64.6398 88.0223 72.7045 78.9292 77.2954C74.3249 79.622 70.0689 82.7186 66.3091 86.4772C61.8728 90.7467 56.5409 92.7667 52.5317 97.679C51.9668 98.3676 52.8761 99.393 53.4409 98.7043C56.9817 94.3736 60.7017 93.3329 64.6971 90.1193C68.6926 86.9057 71.8889 82.7892 76.6146 80.2183C81.3402 77.6474 85.9006 75.7498 90.516 73.5003C96.7296 70.4397 102.916 66.4762 109.873 67.226C110.176 67.226 110.245 66.6904 109.956 66.6445V66.5833Z" fill="#B98D58"/>
<path id="Vector_108" d="M50.2997 83.0954C46.318 89.5838 43.8794 98.8728 50.2997 104.52C50.9748 105.116 51.9254 104.06 51.2503 103.464C45.202 98.1688 47.31 89.5838 50.7682 83.3249C50.961 83.0035 50.5064 82.7128 50.3135 83.0341L50.2997 83.0954Z" fill="#B98D58"/>
<path id="Vector_109" d="M79.7424 77.8922C81.9656 76.266 83.717 73.9592 84.7849 71.2507C84.7849 71.0977 84.6884 70.9141 84.5782 71.0671C83.8618 72.0159 83.3382 73.1789 82.6769 74.1277C81.8365 75.4764 80.8195 76.6781 79.6597 77.6933C79.5908 77.6933 79.6597 77.9075 79.7424 77.8463V77.8922Z" fill="#B98D58"/>
<path id="Vector_110" d="M85.8868 69.0625L86.1347 68.5115C86.1347 68.4044 86.0245 68.3279 85.997 68.435L85.8455 69.0471L85.8868 69.0625Z" fill="#B98D58"/>
<path id="Vector_111" d="M70.7317 91.1293C73.0247 89.4912 75.7248 88.6986 78.4471 88.8645C79.5607 88.8566 80.6738 88.9179 81.7812 89.0482C83.4414 89.5066 84.9391 90.509 86.0797 91.9251C86.1071 91.9637 86.1472 91.9886 86.1912 91.9943C86.2351 92 86.2793 91.9862 86.314 91.9557C86.3487 91.9253 86.3711 91.8808 86.3762 91.832C86.3814 91.7832 86.3689 91.7341 86.3415 91.6956C84.5091 88.5125 83.4896 88.1147 80.1141 88.0228C76.7327 87.6657 73.3463 88.6467 70.5526 90.7927C70.3735 90.9304 70.5526 91.2518 70.7317 91.1293Z" fill="#B98D58"/>
<path id="Vector_112" d="M104.004 74.3113C101.83 73.7684 99.5771 73.7371 97.3911 74.2195C96.5782 74.3572 96.9916 75.9181 97.8595 75.459C99.7758 74.5205 101.897 74.2227 103.963 74.602C104.114 74.602 104.142 74.3419 103.963 74.3113H104.004Z" fill="#B98D58"/>
<path id="Vector_113" d="M59.9712 79.4226C61.558 77.5532 63.2565 75.8047 65.0551 74.189C65.3031 73.9747 64.9448 73.5615 64.6968 73.8064C62.9667 75.5036 61.3419 77.3289 59.8334 79.2696C59.7645 79.3767 59.8334 79.5297 59.9712 79.4226Z" fill="#B98D58"/>
<path id="Vector_114" d="M63.1546 78.2442C63.9358 77.4281 64.806 76.7237 65.7447 76.1476C65.9927 75.9946 65.7447 75.612 65.538 75.7345C64.5462 76.3013 63.6694 77.0877 62.9617 78.0452C62.9489 78.0747 62.945 78.1079 62.9505 78.14C62.9559 78.1721 62.9705 78.2014 62.9921 78.2237C63.0137 78.2459 63.0411 78.2599 63.0703 78.2636C63.0995 78.2673 63.1291 78.2605 63.1546 78.2442Z" fill="#B98D58"/>
<path id="Vector_115" d="M65.9092 79.4226L67.287 78.0453C67.5487 77.8004 67.1629 77.3566 66.9149 77.6321L65.5372 79.0859C65.3443 79.3001 65.6336 79.6215 65.8403 79.4226H65.9092Z" fill="#B98D58"/>
<path id="Vector_116" d="M99.3058 83.3707L101.4 82.223C101.8 82.0087 101.4 81.3048 101.056 81.565L99.0716 82.9422C99.0205 82.9767 98.9837 83.0324 98.9695 83.097C98.9553 83.1616 98.9648 83.2297 98.9958 83.2865C99.0269 83.3434 99.077 83.3842 99.1352 83.3999C99.1933 83.4157 99.2547 83.4052 99.3058 83.3707Z" fill="#B98D58"/>
<path id="Vector_117" d="M100.642 84.0136L101.634 83.5086C101.744 83.5086 101.634 83.279 101.552 83.3402L100.56 83.8605C100.477 83.8605 100.56 84.0595 100.642 84.0136Z" fill="#B98D58"/>
<path id="Vector_118" d="M52.0493 101.887C51.4845 109.11 59.062 110.319 63.9117 110.778C71.4755 111.498 79.3286 111.085 86.4929 108.085C93.6572 105.086 98.9615 99.3777 103.921 93.0882C108.647 87.12 113.152 80.8457 114.461 72.8576C114.461 72.7505 114.323 72.7046 114.31 72.8576C113.331 80.2183 109.157 86.0794 104.844 91.4967C100.532 96.9139 96.1233 102.285 90.3368 105.713C84.5712 108.927 78.2155 110.618 71.7648 110.656C65.9232 110.84 51.8564 111.528 52.256 101.933C52.256 101.78 52.0631 101.796 52.0493 101.933V101.887Z" fill="#B98D58"/>
<path id="Vector_119" d="M55.5627 105.438C61.2972 107.914 67.4705 108.879 73.5975 108.258C79.7245 107.636 85.6384 105.445 90.8743 101.857C95.8582 98.2926 100.478 94.1363 104.652 89.4614C108.785 85.0694 113.263 80.6621 115.247 74.5409C115.247 74.3726 115.067 74.2961 115.012 74.4644C112.877 80.6621 108.22 85.1765 103.99 89.6297C99.9288 94.0978 95.4433 98.064 90.6125 101.459C85.4129 104.976 79.5667 107.146 73.5083 107.808C67.4499 108.47 61.335 107.608 55.6179 105.285C55.5996 105.285 55.5821 105.293 55.5691 105.307C55.5562 105.321 55.549 105.341 55.549 105.361C55.549 105.381 55.5562 105.401 55.5691 105.415C55.5821 105.43 55.5996 105.438 55.6179 105.438H55.5627Z" fill="#B98D58"/>
<path id="Vector_120" d="M52.4215 100.449C50.2585 104.519 52.5455 108.866 55.7694 111.161C60.1644 114.222 65.2208 115.752 70.222 113.671C70.5389 113.548 70.4011 112.967 70.0704 113.105C66.834 114.405 63.2811 114.345 60.0818 112.936C55.7281 111.146 49.8727 106.723 52.6006 100.602C52.6006 100.48 52.4904 100.357 52.4215 100.495V100.449Z" fill="#B98D58"/>
<path id="Vector_121" d="M47.7918 92.6902C47.7229 95.7508 49.6517 99.347 52.5725 99.8979C52.8481 99.8979 53.0823 99.4847 52.7792 99.347C50.1615 98.1074 48.2051 96.0416 48.0811 92.6902C48.0715 92.656 48.0522 92.626 48.0262 92.6048C48.0002 92.5835 47.9687 92.572 47.9364 92.572C47.9041 92.572 47.8727 92.5835 47.8466 92.6048C47.8206 92.626 47.8014 92.656 47.7918 92.6902Z" fill="#B98D58"/>
<path id="Vector_122" d="M47.4207 93.578C47.3193 95.2515 47.6721 96.9204 48.4335 98.3689C49.1949 99.8175 50.3298 100.979 51.6917 101.704C51.9811 101.857 52.2566 101.367 51.9535 101.199C50.6485 100.513 49.5455 99.4298 48.7724 98.0754C47.9994 96.7211 47.588 95.151 47.586 93.5474C47.586 93.523 47.5774 93.4996 47.5619 93.4824C47.5464 93.4652 47.5253 93.4556 47.5034 93.4556C47.4815 93.4556 47.4604 93.4652 47.4449 93.4824C47.4294 93.4996 47.4207 93.523 47.4207 93.5474V93.578Z" fill="#B98D58"/>
<path id="Vector_123" d="M58.8692 94.0676C61.6857 93.5715 64.3388 92.2746 66.5707 90.303C69.3262 87.4872 71.6409 84.3655 74.603 81.718C74.8235 81.5344 74.5066 81.1824 74.2861 81.3814C71.8679 83.4657 69.635 85.8024 67.6178 88.3595C65.2206 91.4201 62.3135 92.7668 58.8416 93.9145C58.7452 93.9145 58.8416 94.0982 58.8416 94.0676H58.8692Z" fill="#B98D58"/>
<path id="Vector_124" d="M64.3667 91.8793C67.0162 91.2866 69.4281 89.7756 71.2555 87.5638C74.5345 84.0288 77.0695 80.555 81.5609 78.7646C89.9201 75.6959 98.066 71.952 105.933 67.5628C106.154 67.4403 105.933 67.0884 105.754 67.2108C101.249 69.5521 96.8677 72.123 92.266 74.2349C88.3808 76.01 84.2751 77.0812 80.4036 78.8258C74.1211 81.6874 71.159 90.2418 64.3805 91.7415C64.2978 91.7415 64.3805 91.8792 64.3805 91.8639L64.3667 91.8793Z" fill="#B98D58"/>
<path id="Vector_125" d="M106.622 66.7517C103.93 67.6146 101.467 69.1899 99.444 71.3426C95.8762 74.3774 91.8162 76.6218 87.4852 77.9535C81.9742 79.9123 76.0913 82.1618 73.1291 88.1759C72.9776 88.4667 73.3771 88.7268 73.5149 88.4361C77.1108 81.2437 84.5368 79.7439 90.9158 77.2036C93.4564 76.2544 95.8567 74.8931 98.0387 73.1637C100.794 70.8529 103.164 68.0066 106.677 67.0425C106.815 67.0425 106.677 66.7823 106.677 66.8129L106.622 66.7517Z" fill="#B98D58"/>
<path id="Vector_126" d="M85.0189 74.2502C91.6459 74.9235 97.0191 71.1896 102.764 68.129C103.012 67.9913 102.764 67.5934 102.544 67.7158C96.9088 70.853 91.5219 74.5716 85.0189 74.1125C85.0042 74.1196 84.9916 74.1314 84.9828 74.1463C84.974 74.1613 84.9693 74.1788 84.9693 74.1966C84.9693 74.2145 84.974 74.232 84.9828 74.2469C84.9916 74.2619 85.0042 74.2737 85.0189 74.2808V74.2502Z" fill="#B98D58"/>
<path id="Vector_127" d="M56.8582 95.0929C63.4025 93.4095 68.1144 90.349 73.7356 86.4008C81.2443 81.1672 89.7036 77.6321 97.6669 73.3779C98.5349 72.9188 103.288 70.8223 103.385 70.0113C103.674 67.6546 100.422 70.6081 99.6785 71.0672C96.1372 73.5452 92.3855 75.6313 88.4774 77.2955C81.3683 79.8817 75.7471 84.2124 69.4783 88.7727C68.445 89.5226 69.4784 91.3743 70.4428 90.6091C73.3085 88.4667 76.1742 86.2937 79.0537 84.1512C82.6771 81.4732 86.1215 80.402 90.1583 78.6269C95.6692 76.1937 100.546 71.9394 105.699 68.6952C106.25 68.3432 105.865 67.2414 105.258 67.5169C96.8954 71.4345 88.4912 75.2602 80.459 79.9276C72.4267 84.595 65.6758 91.0835 56.8169 94.7715C56.7828 94.7875 56.7551 94.8168 56.7391 94.8539C56.7231 94.891 56.7198 94.9333 56.73 94.9729C56.7402 95.0125 56.7631 95.0465 56.7943 95.0686C56.8255 95.0907 56.863 95.0993 56.8995 95.0929H56.8582Z" fill="#B98D58"/>
<path id="Vector_128" d="M48.977 97.7862C48.8362 98.5535 48.8355 99.3445 48.9752 100.112C49.1148 100.88 49.3919 101.608 49.7899 102.255C49.8325 102.336 49.8913 102.405 49.9619 102.457C50.0324 102.509 50.1128 102.542 50.1967 102.554C50.2806 102.566 50.3659 102.556 50.4459 102.525C50.5258 102.495 50.5984 102.444 50.6579 102.377C51.5582 101.306 52.1693 99.9746 52.4214 98.536C52.4547 98.3646 52.4328 98.1857 52.3596 98.0303C52.2863 97.875 52.1664 97.753 52.0206 97.6857C51.8749 97.6184 51.7124 97.61 51.5616 97.6619C51.4108 97.7138 51.2812 97.8227 51.1952 97.9698C50.4662 99.2606 49.9659 100.694 49.721 102.193C49.6717 102.396 49.697 102.613 49.7913 102.795C49.8856 102.977 50.0412 103.11 50.2239 103.165C50.4066 103.22 50.6014 103.192 50.7655 103.087C50.9296 102.982 51.0495 102.81 51.0988 102.607C51.5138 101.366 51.8228 100.085 52.0218 98.7809C52.1321 98.0463 52.2837 97.021 51.581 96.562C49.7899 95.4295 49.3215 99.9592 49.1837 100.985L50.6992 101.214C50.6992 100.082 50.6992 98.9339 50.6166 97.8015C50.5995 97.6318 50.5373 97.4716 50.4377 97.3414C50.3381 97.2113 50.2058 97.1172 50.0578 97.0711C49.9097 97.0251 49.7527 97.0292 49.6068 97.083C49.4608 97.1368 49.3327 97.2378 49.2388 97.373C48.8017 98.0406 48.4494 98.7718 48.1917 99.546C48.1616 99.698 48.1756 99.8566 48.2319 99.9992C48.2881 100.142 48.3837 100.261 48.5048 100.339C48.6259 100.417 48.7662 100.451 48.9055 100.435C49.0449 100.419 49.1761 100.354 49.2802 100.25C49.7921 99.6448 50.2278 98.9653 50.5752 98.23L49.1975 97.8015C49.1975 98.9339 49.1975 100.082 49.2664 101.214C49.3352 102.346 50.6441 102.438 50.7819 101.444C50.8575 100.784 50.9679 100.13 51.1126 99.4848C51.1815 99.1481 51.3468 98.031 51.5397 97.9545L50.961 98.031C50.7957 97.725 50.7268 97.725 50.7681 98.031V98.5666C50.7681 99.0104 50.6304 99.4389 50.5477 99.8674C50.3824 100.663 50.1757 101.398 49.9415 102.224L51.3192 102.637C51.5263 101.262 51.9657 99.9436 52.6143 98.7503L51.3881 98.1688C51.1863 99.4373 50.7139 100.634 50.0104 101.658L50.8783 101.535C50.5069 101.037 50.2299 100.46 50.0642 99.839C49.8985 99.2184 49.8474 98.567 49.9139 97.9239C49.9139 97.4801 49.2664 97.373 49.1975 97.8168L48.977 97.7862Z" fill="#B98D58"/>
<path id="Vector_129" d="M52.0218 102.821C51.726 105.177 52.1376 107.576 53.1929 109.646C53.2536 109.753 53.3379 109.842 53.4379 109.903C53.5379 109.965 53.6504 109.997 53.7646 109.997C53.8789 109.997 53.9913 109.965 54.0913 109.903C54.1913 109.842 54.2757 109.753 54.3364 109.646C55.3146 107.901 55.2733 108.116 54.8462 106.096C54.7976 105.903 54.6876 105.736 54.5366 105.627C54.3856 105.517 54.204 105.472 54.0255 105.5C53.847 105.528 53.6836 105.627 53.566 105.779C53.4483 105.931 53.3843 106.125 53.3858 106.325C53.2349 107.561 53.4772 108.817 54.0708 109.876C54.6644 110.935 55.572 111.73 56.6372 112.125C57.3536 112.492 58.3732 111.681 57.8221 110.794C56.7891 109.094 55.5618 107.551 54.171 106.203C53.5373 105.575 52.1871 106.203 52.5729 107.243C57.395 120.358 78.0611 114.267 86.672 110.212C98.8389 104.352 108.423 93.3818 113.331 79.6979C113.524 79.1623 112.739 78.9328 112.546 79.4531C108.359 90.4796 100.72 99.4492 91.0395 104.703C83.4481 108.927 59.3514 118.552 54.3226 106.417L52.8209 107.702C54.1846 108.85 55.3672 110.241 56.3204 111.819L57.3123 110.38L54.8737 106.356L53.4133 106.57C53.1102 105.33 52.7933 104.091 52.4902 102.851C52.4902 102.782 52.4655 102.716 52.4216 102.667C52.3777 102.619 52.3181 102.591 52.256 102.591C52.1939 102.591 52.1343 102.619 52.0904 102.667C52.0465 102.716 52.0218 102.782 52.0218 102.851V102.821Z" fill="#B98D58"/>
<path id="Vector_130" d="M52.8484 103.402C56.2376 111.054 65.5237 111.635 72.247 111.345C82.0739 110.997 91.5654 107.294 99.4299 100.74C100.201 100.097 99.5263 98.6738 98.6583 99.2094C86.9475 107.228 64.821 115.737 53.1928 103.066C53.0275 102.867 52.7657 103.066 52.8622 103.341L52.8484 103.402Z" fill="#B98D58"/>
<path id="Vector_131" d="M87.113 9.25827C89.4414 10.2071 94.7319 12.6861 94.0017 16.3283C93.2164 20.6437 86.4517 20.7814 83.4758 20.9192C78.9155 21.0416 74.4102 20.506 69.8499 20.9192C64.5731 21.3782 59.3791 22.6025 54.1161 23.2146C47.558 23.9644 38.8783 24.2705 33.1469 19.8173C22.1249 11.2323 46.8416 6.7792 50.6717 6.3048C59.9784 5.37359 69.3472 5.52234 78.6261 6.7486C83.9166 7.31482 89.648 7.74326 92.4035 13.4054C92.872 14.3542 91.5769 15.1959 91.1085 14.2471C88.0224 8.01874 80.183 8.52375 74.8373 8.03405C70.1805 7.62087 65.4962 7.31479 60.8257 7.3454C55.4034 7.30115 49.9903 7.84961 44.6648 8.98283C42.5667 9.23445 40.5116 9.81671 38.5614 10.7121C36.2605 10.7886 35.1032 12.2424 35.1032 14.8745C32.9402 18.1493 33.9322 19.8939 38.0929 20.1387C47.5305 23.7196 57.6431 21.2558 67.246 20.2458C71.4627 19.8761 75.6963 19.8046 79.9212 20.0316C81.8776 20.1081 87.9672 20.7355 89.2072 19.4195L91.632 12.6555C90.3276 11.2278 88.7567 10.1359 87.0303 9.45722C87.0303 9.45722 87.0303 9.28889 87.0303 9.3195L87.113 9.25827Z" fill="#B98D58"/>
<path id="Vector_132" d="M82.6074 8.29413C74.1894 2.93808 64.6279 1.69856 55.0526 1.57614C50.9194 1.57614 46.7861 1.57612 42.6529 1.9893C38.7677 2.34127 33.3807 2.24948 31.631 7.4219C30.6252 10.2836 31.2728 13.8338 31.9065 16.6802C31.9315 16.7712 31.925 16.8692 31.8884 16.9552C31.8518 17.0412 31.7876 17.1089 31.7085 17.1452C31.6293 17.1816 31.5409 17.1838 31.4603 17.1516C31.3797 17.1194 31.3129 17.055 31.2727 16.971C29.3163 13.6502 29.0821 7.37596 31.507 4.19294C34.5656 0.152947 41.7298 0.566145 45.9595 0.3366C57.3258 -0.290823 73.721 -0.918236 83.0207 7.75856C83.2963 8.01871 83.0208 8.47777 82.6488 8.29413H82.6074Z" fill="#B98D58"/>
<path id="Vector_133" d="M35.7646 28.5553C34.093 26.8076 32.7593 24.7 31.845 22.3611C30.9307 20.0221 30.4549 17.5008 30.4465 14.951C30.4465 14.6344 30.5598 14.3308 30.7613 14.1069C30.9628 13.8831 31.2362 13.7573 31.5212 13.7573C31.8062 13.7573 32.0795 13.8831 32.2811 14.1069C32.4826 14.3308 32.5958 14.6344 32.5958 14.951C32.4924 17.5458 32.992 20.1265 34.0464 22.4447C35.1009 24.763 36.6747 26.7409 38.6165 28.188C37.6337 28.2799 36.6831 28.4023 35.7646 28.5553Z" fill="#B98D58"/>
<path id="Vector_134" d="M63.554 33.7736C74.9479 33.896 91.7426 32.4575 92.4177 16.573C92.4307 16.5129 92.4616 16.4594 92.5053 16.4211C92.549 16.3829 92.6031 16.3621 92.6588 16.3621C92.7145 16.3621 92.7686 16.3829 92.8123 16.4211C92.856 16.4594 92.8869 16.5129 92.8999 16.573C93.4786 23.2298 88.8769 28.5706 84.1926 32.0137C79.1638 35.7324 72.0547 35.9313 65.6344 35.7477C64.9866 35.0325 64.2912 34.3726 63.554 33.7736Z" fill="#B98D58"/>
<path id="Vector_135" d="M81.5331 8.01873C77.3998 7.3607 73.5422 9.04404 69.5329 9.12055C65.9646 9.19707 62.5478 8.40131 58.9518 8.69207C54.736 9.04404 50.837 10.6968 46.7175 11.1711C42.5981 11.6455 40.2972 10.4213 36.2467 12.3954C36.2085 12.4053 36.1685 12.4011 36.1327 12.3833C36.097 12.3655 36.0674 12.3351 36.0487 12.2969C36.0299 12.2587 36.0229 12.2147 36.0288 12.1717C36.0347 12.1287 36.0532 12.089 36.0813 12.0587C38.2498 10.3238 40.732 9.13325 43.3558 8.56966C47.7088 7.14413 52.1535 6.09026 56.651 5.41725C61.046 5.01937 64.4628 6.04463 68.7476 6.76388C73.0324 7.48312 77.3034 6.59556 81.5606 7.92692V8.01873H81.5331Z" fill="#B98D58"/>
<path id="Vector_136" d="M34.3868 13.084L34.1389 13.4054C34.1389 13.4054 33.9874 13.4054 34.0425 13.2983L34.2904 12.9769C34.2904 12.9004 34.4281 12.9769 34.3868 13.084Z" fill="#B98D58"/>
<path id="Vector_137" d="M92.4588 17.8127C89.414 21.2865 85.1016 21.6538 80.9822 22.3272C75.1957 23.2606 69.4229 23.6585 63.5951 23.9952C57.5745 24.556 51.5324 24.7808 45.4915 24.6685C41.3583 24.439 36.1229 24.3318 33.023 20.8428C32.899 20.6897 33.1056 20.4602 33.2296 20.6132C36.8944 24.7909 43.852 24.393 48.743 24.2706C53.634 24.1482 58.649 23.7044 63.5951 23.4137C68.5412 23.1229 73.3633 22.8474 78.2129 22.1588C83.0626 21.4702 88.6562 21.3324 92.2934 17.5679C92.4037 17.4608 92.569 17.5679 92.4588 17.7516V17.8127Z" fill="#B98D58"/>
<path id="Vector_138" d="M92.1146 17.3536C91.7289 29.5194 75.0444 28.5553 67.6735 28.8308C55.508 29.2746 44.2519 28.9532 33.9326 20.7355C33.5055 20.3835 33.9326 19.5878 34.3597 19.9398C43.2186 26.9332 52.5596 28.5859 63.2234 28.3258C71.9307 28.1115 89.7174 30.1469 91.8391 17.323C91.8391 17.2824 91.8536 17.2435 91.8794 17.2148C91.9053 17.1861 91.9403 17.1699 91.9769 17.1699C92.0134 17.1699 92.0484 17.1861 92.0743 17.2148C92.1001 17.2435 92.1146 17.2824 92.1146 17.323V17.3536Z" fill="#B98D58"/>
<path id="Vector_139" d="M38.2447 28.2188C35.8208 26.7136 33.9705 24.2832 33.0368 21.3784C32.7475 20.6285 33.7257 19.9705 34.0288 20.7203C35.503 24.3624 38.4514 26.566 42.0335 27.9586C40.7384 28.0045 39.4709 28.0964 38.2447 28.2188Z" fill="#B98D58"/>
<path id="Vector_140" d="M57.6569 30.3305C59.6133 30.407 61.4319 30.4376 63.0163 30.5141C72.0956 30.9885 90.2956 31.2946 91.384 16.9404C91.384 16.8024 91.4334 16.6701 91.5212 16.5725C91.6091 16.4749 91.7282 16.42 91.8525 16.42C91.9767 16.42 92.0958 16.4749 92.1837 16.5725C92.2715 16.6701 92.3209 16.8024 92.3209 16.9404C93.1889 30.8508 76.9315 33.0238 68.1002 33.1309C66.2402 33.1309 64.3803 33.1309 62.5892 32.9932C61.0393 31.9048 59.385 31.0118 57.6569 30.3305Z" fill="#B98D58"/>
<path id="Vector_141" d="M89.8545 18.8992C89.1105 23.4901 85.8039 28.2187 81.4365 28.9379C81.4129 28.945 81.3884 28.9467 81.3643 28.9432C81.3401 28.9397 81.3168 28.931 81.2957 28.9175C81.2746 28.904 81.2561 28.886 81.2412 28.8646C81.2264 28.8432 81.2154 28.8187 81.2091 28.7925C81.2028 28.7664 81.2012 28.7391 81.2043 28.7123C81.2075 28.6855 81.2153 28.6596 81.2275 28.6362C81.2396 28.6127 81.2559 28.5922 81.2752 28.5757C81.2945 28.5592 81.3165 28.5471 81.34 28.54C85.4732 26.8261 88.7109 23.8726 89.6065 18.8226C89.6065 18.6849 89.8407 18.8226 89.8269 18.8992H89.8545Z" fill="#B98D58"/>
<path id="Vector_142" d="M86.0389 21.2712C85.0331 25.3571 81.9057 28.586 78.5715 30.5295C78.3649 30.6519 78.1031 30.3306 78.296 30.1469C81.2581 27.423 84.5785 25.5561 85.8736 21.2253C85.8736 21.1029 86.0802 21.2253 86.0389 21.2253V21.2712Z" fill="#B98D58"/>
<path id="Vector_143" d="M82.8558 22.2812C81.3265 25.3418 78.8879 30.4989 75.2782 30.9733C75.2098 30.9696 75.1452 30.9378 75.0968 30.884C75.0484 30.8303 75.0197 30.7585 75.0164 30.6826C75.1804 29.7975 75.5564 28.978 76.1048 28.3106C76.8626 27.117 77.6479 25.9386 78.447 24.7909C78.571 24.6226 79.1359 23.3371 79.3563 24.0411C79.3563 24.24 78.2128 25.5714 77.9786 25.7397C77.0536 26.9663 76.0547 28.1218 74.9889 29.1982C74.8649 29.3206 74.7133 29.1982 74.8098 28.984C76.2702 27.0099 78.0061 25.3112 79.4527 23.3065C79.5492 23.1688 79.7834 23.3065 79.687 23.5055C78.7914 24.8368 77.9097 26.1682 77.0693 27.5455C76.9039 27.8209 75.7604 29.3359 75.8431 29.6114C76.1048 30.5449 77.0141 29.6114 77.3448 29.3206C79.5368 27.3771 81.3231 24.9284 82.5802 22.1435C82.5967 22.111 82.6241 22.0871 82.6563 22.0771C82.6886 22.0671 82.7232 22.0717 82.7525 22.0899C82.7817 22.1082 82.8032 22.1386 82.8122 22.1745C82.8213 22.2103 82.8171 22.2488 82.8007 22.2812H82.8558Z" fill="#B98D58"/>
<path id="Vector_144" d="M76.9728 23.3983C76.4024 24.833 75.5222 26.0892 74.4101 27.0557C74.1897 27.2393 73.9004 26.8262 74.107 26.6272C75.1831 25.709 76.0865 24.5651 76.7661 23.2605C76.835 23.1075 77.0416 23.2606 76.9728 23.3983Z" fill="#B98D58"/>
<path id="Vector_145" d="M74.3417 24.5767C73.8457 25.1276 73.3635 25.6939 72.8262 26.1989C72.7997 26.213 72.7698 26.2174 72.7409 26.2113C72.712 26.2052 72.6855 26.189 72.6655 26.165C72.6455 26.1411 72.6329 26.1107 72.6296 26.0782C72.6263 26.0458 72.6324 26.0129 72.6471 25.9846C73.1017 25.4031 73.6253 24.8828 74.1212 24.3472C74.2728 24.1942 74.4795 24.439 74.3417 24.5767Z" fill="#B98D58"/>
<path id="Vector_146" d="M65.9779 26.1375C65.2064 26.6731 64.4211 27.2087 63.6633 27.7749C63.498 27.8973 63.3327 27.576 63.5118 27.4842C64.3247 27.0098 65.11 26.5048 65.9091 25.9539C65.978 25.9539 66.0468 26.0457 65.9779 26.0916V26.1375Z" fill="#B98D58"/>
<path id="Vector_147" d="M62.2448 26.9944L61.1564 27.5147C61.1376 27.5285 61.1163 27.5375 61.094 27.541C61.0718 27.5445 61.049 27.5425 61.0275 27.5351C61.006 27.5276 60.9863 27.5149 60.9698 27.498C60.9533 27.481 60.9404 27.4601 60.932 27.4369C60.9236 27.4137 60.92 27.3887 60.9214 27.3637C60.9229 27.3388 60.9293 27.3145 60.9402 27.2926C60.9512 27.2708 60.9664 27.2519 60.9847 27.2373C61.003 27.2228 61.024 27.213 61.0462 27.2087L62.1346 26.7036C62.2862 26.6271 62.3964 26.9179 62.2448 26.9944Z" fill="#B98D58"/>
<path id="Vector_148" d="M57.8084 20.0775C52.5962 20.5346 47.3538 20.3241 42.1849 19.45C42.1459 19.4334 42.1123 19.404 42.0887 19.3657C42.065 19.3275 42.0524 19.2822 42.0524 19.2358C42.0524 19.1894 42.065 19.1441 42.0887 19.1058C42.1123 19.0676 42.1459 19.0382 42.1849 19.0215L42.7497 18.7308C42.9564 18.6237 43.1493 18.9603 42.9426 19.098C43.535 18.7155 46.3043 19.6337 47.0758 19.7255C48.2791 19.8479 49.4777 19.9398 50.6718 20.001C53.0738 20.1057 55.4792 20.0648 57.8773 19.8785C57.9875 19.8785 57.9875 20.0622 57.8773 20.0775H57.8084Z" fill="#B98D58"/>
<path id="Vector_149" d="M48.6325 18.5319C47.1032 18.287 45.5326 18.3177 44.0171 18.0575C43.838 18.0575 43.9069 17.7668 44.0171 17.7515C45.583 17.7242 47.1462 17.904 48.6739 18.287C48.8116 18.287 48.7566 18.5472 48.605 18.5319H48.6325Z" fill="#B98D58"/>
<path id="Vector_150" d="M44.2514 16.3436L42.667 16.0834C42.4328 16.0834 42.5292 15.6397 42.7634 15.6856L44.3478 15.9763C44.5683 15.9763 44.4718 16.3742 44.2514 16.3436Z" fill="#B98D58"/>
<path id="Vector_151" d="M42.2265 14.5684H41.579C41.5415 14.5565 41.5086 14.5314 41.4852 14.4969C41.4617 14.4624 41.449 14.4203 41.449 14.3771C41.449 14.3338 41.4617 14.2918 41.4852 14.2573C41.5086 14.2228 41.5415 14.1977 41.579 14.1858H42.2265C42.2703 14.1858 42.3124 14.2052 42.3434 14.2396C42.3744 14.274 42.3918 14.3207 42.3918 14.3694C42.3918 14.4181 42.3744 14.4649 42.3434 14.4993C42.3124 14.5337 42.2703 14.553 42.2265 14.553V14.5684Z" fill="#B98D58"/>
<path id="Vector_152" d="M75.2783 4.7134C74.2835 5.33359 73.2577 5.89049 72.206 6.38142C72.1371 6.38142 72.0958 6.28962 72.206 6.25901C73.1985 5.64283 74.2246 5.09596 75.2783 4.62158C75.2783 4.62158 75.3885 4.62158 75.2783 4.7134Z" fill="#B98D58"/>
<path id="Vector_153" d="M74.1068 4.3155C73.3353 4.71338 72.5776 5.12656 71.8336 5.55504C71.1957 6.00862 70.5225 6.39782 69.8221 6.71804C69.7878 6.72531 69.7523 6.72035 69.7207 6.70384C69.6891 6.68734 69.663 6.66016 69.6462 6.62618C69.6294 6.5922 69.6227 6.55318 69.627 6.5147C69.6314 6.47623 69.6466 6.44028 69.6705 6.41201C71.0242 5.43232 72.5005 4.67946 74.0518 4.17773C74.0518 4.17773 74.162 4.2849 74.0518 4.3155H74.1068Z" fill="#B98D58"/>
<path id="Vector_154" d="M72.0957 3.42794C70.7179 4.11658 69.4366 4.95824 68.1002 5.72339C68.0686 5.73275 68.0352 5.73053 68.0048 5.71704C67.9745 5.70355 67.9489 5.67951 67.9318 5.64853C67.9148 5.61755 67.9072 5.58128 67.9103 5.54513C67.9133 5.50898 67.9267 5.4749 67.9486 5.44795C69.2632 4.58376 70.6468 3.85631 72.0819 3.2749C72.1645 3.2749 72.2196 3.39734 72.0819 3.42794H72.0957Z" fill="#B98D58"/>
<path id="Vector_155" d="M67.8796 3.01465C66.4295 3.90736 64.9129 4.65998 63.3468 5.26419C63.1677 5.26419 63.1126 5.03463 63.3468 4.95811C64.8623 4.26948 66.3778 3.64208 67.852 2.83102C67.8736 2.82075 67.8979 2.8196 67.9202 2.8278C67.9425 2.836 67.9614 2.85297 67.9732 2.87553C67.9851 2.89808 67.9891 2.92468 67.9846 2.9503C67.98 2.97591 67.9671 2.9988 67.9484 3.01465H67.8796Z" fill="#B98D58"/>
<path id="Vector_156" d="M63.8705 2.98406C63.0635 3.35067 62.2809 3.78027 61.5284 4.26956C61.3906 4.34607 61.2253 4.13181 61.363 4.00939C62.0889 3.40468 62.919 2.97235 63.8017 2.73926C63.8309 2.73926 63.8589 2.75212 63.8796 2.77508C63.9002 2.79804 63.9119 2.82919 63.9119 2.86166C63.9119 2.89413 63.9002 2.92529 63.8796 2.94824C63.8589 2.9712 63.8309 2.98406 63.8017 2.98406H63.8705Z" fill="#B98D58"/>
<path id="Vector_157" d="M78.075 5.57035C76.5897 6.29739 75.0614 6.91096 73.5009 7.40673C73.2391 7.40673 73.0462 7.05475 73.308 6.91702C74.8433 6.29694 76.4125 5.78581 78.0061 5.38672C78.0353 5.38672 78.0634 5.39963 78.084 5.42259C78.1047 5.44554 78.1163 5.4767 78.1163 5.50917C78.1163 5.54164 78.1047 5.57275 78.084 5.59571C78.0634 5.61866 78.0353 5.63157 78.0061 5.63157L78.075 5.57035Z" fill="#B98D58"/>
<path id="Vector_158" d="M78.7638 6.6568C76.9621 5.67365 75.0798 4.88447 73.1426 4.30013C71.1966 3.88051 69.21 3.74165 67.2321 3.88697C67.1779 3.87249 67.1298 3.83817 67.0953 3.78959C67.0609 3.74102 67.0421 3.68098 67.0421 3.61913C67.0421 3.55729 67.0609 3.49725 67.0953 3.44868C67.1298 3.4001 67.1779 3.36583 67.2321 3.35135C71.1724 1.98938 75.4985 4.46847 78.9154 6.50377C79.0118 6.50377 78.9154 6.71802 78.8327 6.6568H78.7638Z" fill="#B98D58"/>
<path id="Vector_159" d="M77.0004 6.61091C72.9014 5.35007 68.6947 4.57042 64.4492 4.28483C64.1323 4.28483 64.0358 3.70334 64.3803 3.64213C66.1796 3.50784 67.9859 3.73596 69.7122 4.31546C72.1921 4.88167 74.6445 5.55499 77.0831 6.30483C77.2484 6.30483 77.1795 6.65682 77.0004 6.61091Z" fill="#B98D58"/>
<path id="Vector_160" d="M71.3651 6.05989C69.6813 5.68157 67.9793 5.41078 66.2675 5.24884C66.1022 5.24884 66.0884 4.94277 66.2675 4.95807C68.0045 5.09303 69.7281 5.38996 71.4203 5.84567C71.4458 5.84567 71.4704 5.85692 71.4885 5.87701C71.5066 5.8971 71.5167 5.92435 71.5167 5.95276C71.5167 5.98117 71.5066 6.00842 71.4885 6.02851C71.4704 6.0486 71.4458 6.05989 71.4203 6.05989H71.3651Z" fill="#B98D58"/>
<path id="Vector_161" d="M43.3835 6.42735C39.1125 7.6669 35.0069 9.04418 32.1687 13.0383C31.9621 13.3443 31.59 12.9159 31.7967 12.6251C34.6211 8.64632 39.0987 7.34556 43.3284 6.21313C43.354 6.21313 43.3785 6.22443 43.3966 6.24452C43.4147 6.26461 43.4249 6.29186 43.4249 6.32027C43.4249 6.34868 43.4147 6.37593 43.3966 6.39602C43.3785 6.41611 43.354 6.42735 43.3284 6.42735H43.3835Z" fill="#B98D58"/>
<path id="Vector_162" d="M40.3393 4.88156C36.702 6.71792 33.051 9.01335 31.1359 13.0839C30.9844 13.4053 30.5159 13.0839 30.6813 12.7932C32.927 8.7685 36.3576 6.45774 40.1739 4.56016C40.3668 4.46835 40.5321 4.77444 40.3393 4.88156Z" fill="#B98D58"/>
<path id="Vector_163" d="M37.0599 5.00397C35.7616 5.66941 34.525 6.47409 33.3676 7.40655C33.1885 7.55958 32.9956 7.20761 33.1885 7.06988C34.3606 6.15905 35.6113 5.37989 36.9221 4.74384C37.0737 4.66733 37.2115 4.91215 37.0599 5.00397Z" fill="#B98D58"/>
<path id="Vector_164" d="M38.8368 9.59497C38.1363 8.86867 37.3645 8.23216 36.536 7.69741C35.7644 7.22302 34.9378 6.94755 34.1663 6.48846C34.131 6.45956 34.1057 6.41823 34.0945 6.37124C34.0832 6.32425 34.0867 6.27438 34.1044 6.22988C34.122 6.18537 34.1527 6.14887 34.1915 6.12634C34.2303 6.1038 34.2749 6.09658 34.3178 6.10588C36.1087 6.74471 37.7249 7.87655 39.0159 9.39602C39.1399 9.51844 39.0159 9.71739 38.8368 9.59497Z" fill="#B98D58"/>
<path id="Vector_165" d="M35.7647 10.8803C34.7957 9.76159 33.658 8.83973 32.403 8.15639C32.1688 8.01866 32.3204 7.55956 32.5821 7.66668C33.9331 8.2967 35.1114 9.30993 35.999 10.6049C36.1505 10.7885 35.9025 11.064 35.7647 10.8803Z" fill="#B98D58"/>
<path id="Vector_166" d="M32.9122 11.2171L31.7962 10.7274C31.5207 10.6203 31.6447 10.1153 31.9202 10.2378L33.0224 10.7427C33.2842 10.8652 33.174 11.3395 32.9122 11.2171Z" fill="#B98D58"/>
<path id="Vector_167" d="M89.1378 15.15C87.6261 13.0782 85.7865 11.3305 83.7095 9.9929C81.4637 8.4626 79.2869 8.34018 76.8207 7.8964C76.6416 7.8964 76.683 7.52911 76.8207 7.54441C79.2936 7.54522 81.7206 8.28523 83.8472 9.68682C85.9358 11.0829 87.7757 12.8932 89.2755 15.0276C89.2755 15.1194 89.1929 15.2418 89.124 15.15H89.1378Z" fill="#B98D58"/>
<path id="Vector_168" d="M88.2838 19.3738C88.5731 15.1195 83.999 12.2119 81.0507 10.85C80.8027 10.7276 80.8854 10.3297 81.1609 10.4062C84.3848 11.1866 88.9727 15.2878 88.3941 19.389H88.2838V19.3738Z" fill="#B98D58"/>
<path id="Vector_169" d="M83.7237 15.1499L81.1474 13.3136C81.1218 13.2953 81.1038 13.2665 81.0973 13.2335C81.0909 13.2005 81.0965 13.166 81.1129 13.1376C81.1294 13.1092 81.1553 13.0892 81.185 13.082C81.2147 13.0748 81.2458 13.0811 81.2714 13.0993L83.8202 14.9663C83.9166 15.0428 83.8202 15.2264 83.7237 15.1499Z" fill="#B98D58"/>
<path id="Vector_170" d="M31.5353 89.1553C31.2696 89.2145 31.0214 89.3466 30.8134 89.5395C30.6053 89.7324 30.444 89.98 30.3441 90.2598C30.2441 90.5396 30.2088 90.8427 30.2412 91.1416C30.2735 91.4405 30.3727 91.7256 30.5296 91.9711C30.8964 92.5433 31.448 92.9359 32.0693 93.0671C32.6906 93.1983 33.3335 93.0578 33.8637 92.675C34.3923 92.3651 34.7907 91.8376 34.9735 91.2055C35.1563 90.5734 35.1091 89.8869 34.8419 89.293C34.5769 88.7188 34.1175 88.2849 33.5646 88.0869C33.0117 87.8889 32.4106 87.9429 31.8935 88.2371C31.6318 88.4208 31.7971 88.9564 32.114 88.8186C32.4674 88.6502 32.8624 88.6225 33.2321 88.7406C33.6017 88.8586 33.9232 89.115 34.1422 89.4662C34.3611 89.8174 34.4639 90.2419 34.4332 90.6678C34.4026 91.0936 34.2403 91.4946 33.9739 91.8027C33.6616 92.1572 33.2576 92.3948 32.8182 92.4826C32.3787 92.5703 31.9255 92.5039 31.5216 92.2924C30.4469 91.6803 30.1438 89.798 31.6042 89.446C31.7695 89.446 31.7006 89.1247 31.5353 89.1553Z" fill="#B98D58"/>
<path id="Vector_171" d="M147.789 86.8445C147.517 86.9 147.272 87.062 147.098 87.301C146.924 87.5401 146.833 87.8404 146.841 88.1475C146.849 88.4547 146.957 88.7484 147.143 88.9754C147.33 89.2023 147.583 89.3476 147.858 89.3848C148.139 89.3958 148.414 89.2991 148.639 89.1111C148.863 88.9231 149.023 88.6552 149.091 88.3522C149.158 88.0492 149.13 87.7295 149.011 87.4467C148.892 87.1638 148.689 86.9351 148.436 86.7986C147.996 86.5385 147.61 87.3036 148.051 87.5331C148.492 87.7627 148.588 88.5126 148.051 88.6197C147.513 88.7268 147.252 87.5638 147.968 87.3802C148.285 87.2883 148.147 86.7833 147.83 86.8445H147.789Z" fill="#B98D58"/>
<path id="Vector_172" d="M113.841 93.7155C113.661 93.7697 113.493 93.8638 113.347 93.992C113.202 94.1203 113.08 94.28 112.992 94.4616C112.903 94.6433 112.848 94.843 112.831 95.0488C112.813 95.2546 112.833 95.4621 112.89 95.659C112.96 95.8688 113.073 96.0572 113.221 96.2087C113.369 96.3602 113.547 96.4705 113.741 96.5303C113.935 96.5901 114.139 96.5978 114.336 96.5527C114.533 96.5077 114.717 96.4111 114.874 96.2711C115.047 96.1573 115.193 95.9983 115.298 95.808C115.404 95.6178 115.466 95.4018 115.479 95.1789C115.493 94.956 115.457 94.7328 115.376 94.5285C115.295 94.3242 115.17 94.145 115.012 94.0063C114.351 93.4094 113.166 93.3788 112.863 94.4194C112.84 94.5207 112.845 94.6272 112.876 94.7256C112.907 94.8241 112.963 94.9104 113.038 94.9738C113.112 95.0372 113.202 95.075 113.296 95.0825C113.39 95.0901 113.483 95.067 113.565 95.0163C113.749 94.8253 113.989 94.7163 114.24 94.7102C114.321 94.718 114.397 94.7527 114.46 94.8096C114.522 94.8666 114.567 94.9432 114.59 95.0293C114.612 95.1154 114.61 95.2071 114.585 95.2922C114.559 95.3773 114.511 95.4518 114.447 95.506C113.703 96.3323 113.069 94.6643 113.992 94.297C114.052 94.2664 114.1 94.2129 114.128 94.1463C114.155 94.0796 114.161 94.0042 114.142 93.9337C114.124 93.8633 114.083 93.8025 114.028 93.7625C113.973 93.7224 113.906 93.7058 113.841 93.7155Z" fill="#B98D58"/>
<path id="Vector_173" d="M94.125 127.137C93.7985 127.145 93.4782 127.238 93.1908 127.411C92.9034 127.583 92.6572 127.829 92.4726 128.128C92.2881 128.428 92.1704 128.772 92.1296 129.132C92.0887 129.492 92.1257 129.857 92.2375 130.198C92.3658 130.546 92.5649 130.856 92.8191 131.104C93.0733 131.351 93.3757 131.531 93.7027 131.627C94.0297 131.723 94.3724 131.734 94.7038 131.659C95.0352 131.584 95.3464 131.424 95.613 131.193C96.2265 130.727 96.651 130.012 96.7953 129.202C96.9395 128.393 96.792 127.552 96.3846 126.862C95.6543 125.791 93.5326 125.332 93.2433 127.046C93.2228 127.145 93.2283 127.249 93.259 127.344C93.2897 127.44 93.3445 127.525 93.4168 127.587C93.4891 127.65 93.576 127.688 93.6673 127.698C93.7586 127.708 93.8504 127.689 93.9322 127.642C94.4282 127.367 95.1308 127.061 95.5579 127.642C95.7514 128.03 95.8225 128.479 95.7601 128.917C95.6977 129.355 95.5053 129.758 95.2135 130.06C95.0804 130.228 94.914 130.359 94.7275 130.443C94.5409 130.526 94.3393 130.561 94.1388 130.543C93.9382 130.525 93.7441 130.455 93.572 130.34C93.3998 130.224 93.2542 130.066 93.1468 129.877C93.0262 129.652 92.9594 129.397 92.9528 129.135C92.9462 128.874 93.0001 128.615 93.1093 128.383C93.2184 128.151 93.3793 127.955 93.5764 127.811C93.7735 127.668 94.0003 127.584 94.2353 127.566C94.4833 127.566 94.4282 127.061 94.1664 127.076L94.125 127.137Z" fill="#B98D58"/>
</g>
<defs>
<clipPath id="clip0_406_381">
<rect width="184.411" height="150" fill="white" transform="translate(0.797607)"/>
</clipPath>
</defs>
</svg>
