<svg width="180" height="101" viewBox="0 0 180 101" fill="none" xmlns="http://www.w3.org/2000/svg">
<g clip-path="url(#clip0_500_36)">
<path d="M35.7539 41.9911C34.4714 35.8519 32.1059 32.7849 27.104 32.7849C16.2928 32.7849 10.816 52.9175 10.816 65.7956C10.816 74.4757 13.856 79.7153 20.4824 79.7153C25.0805 79.7153 30.6903 76.4958 35.0794 71.8559C35.6209 73.5024 36.0247 74.8492 36.0247 75.896C36.0247 81.4355 25.4795 87.196 15.9508 87.196C4.66459 87.196 0 79.7837 0 66.611C0 46.4048 13.5188 26.6457 30.6143 26.6457C37.0365 26.6457 42.1048 28.892 42.1048 34.2053C42.1048 37.651 39.6063 40.1183 35.7539 41.9911Z" fill="#89B964"/>
<path d="M76.847 71.8559C77.1178 71.8559 77.1843 72.0821 77.1843 72.5292C77.1843 77.9951 70.0211 86.1544 65.2235 86.1544C61.5042 86.1544 59.2099 83.6082 59.2099 78.2213C59.2099 76.4274 59.3477 73.7287 59.5472 72.1557C54.4788 81.2882 49.5435 86.0018 45.0832 86.228H44.3374C38.9318 86.228 37.0365 81.8143 37.0365 75.6751C37.3073 61.2293 47.5105 44.7634 58.3929 44.7634C61.0292 44.7634 63.2618 45.3631 65.0145 46.8572C66.0976 45.5841 67.5843 44.9107 69.2706 44.9107C71.3654 44.9107 73.3272 45.5841 75.2842 46.7099C72.7857 50.829 68.6626 69.315 68.6626 75.0754C68.6626 76.5747 69.1376 77.5426 69.4084 78.2213C70.1494 78.074 71.4367 77.0218 72.7192 75.6015C74.814 73.0553 76.1678 71.8611 76.8423 71.8611L76.847 71.8559ZM63.1288 54.7166C62.3877 51.6496 59.8179 50.3766 57.7231 50.3766C52.3175 50.3766 46.9119 64.7487 46.9119 74.4809C47.0449 77.1007 47.7242 78.3738 49.1397 78.3738C50.5553 78.3738 52.5883 75.8277 55.2246 71.4876C58.6732 65.9481 61.6467 59.2881 63.1335 54.7219L63.1288 54.7166Z" fill="#89B964"/>
<path d="M113.75 55.2374C113.75 69.7568 103.547 85.7755 91.919 85.7755C89.7577 85.7755 87.5252 85.3284 85.5682 84.3551C84.8272 87.5747 84.0814 91.5412 84.0814 94.7607C84.0814 95.9602 84.4186 97.2333 84.7559 98.5011C82.3238 99.8478 80.0248 100.374 78.405 100.374C75.6357 100.374 74.3484 98.8746 74.3484 96.1811C74.3484 95.1343 74.4862 93.8612 74.7522 92.5144C75.2272 90.4207 80.7658 64.2226 81.5781 60.3297C82.4569 56.1369 82.9984 52.9174 82.9984 49.7031C82.9984 48.5037 82.7941 47.3095 82.3239 46.1838C85.0267 44.837 87.3257 44.2373 89.2827 44.2373C91.7813 44.2373 93.1351 45.3578 93.1351 47.683C93.1351 49.0298 92.2563 53.4487 90.836 59.4354C94.7548 52.4755 100.094 44.9896 106.583 44.9896C107.124 44.9896 107.666 45.0632 108.274 45.1369C112.192 45.7366 113.746 50.75 113.746 55.2426L113.75 55.2374ZM103.813 57.4837C103.813 54.564 103.205 52.9174 101.718 52.9174C98.2034 52.9174 89.7577 68.1102 87.1214 76.3432C87.5252 78.4369 90.2993 79.9362 92.5983 79.9362C98.3412 79.9362 103.343 68.4101 103.818 58.378V57.4784L103.813 57.4837Z" fill="#89B964"/>
<path d="M128.309 52.9174C128.309 54.4167 128.984 55.7635 130.067 57.2575C132.974 61.1504 135.948 64.6698 135.948 70.1303C135.948 79.1103 128.514 86.0754 120.334 86.0754C115.669 86.0754 110.33 82.7086 110.33 76.8692C110.33 74.3231 111.817 72.7501 113.033 72.0031C114.586 76.643 117.223 80.7621 121.279 80.9831C124.457 80.9831 126.485 79.0366 126.485 74.9965C126.485 71.4771 123.645 69.0098 121.08 65.7903C119.322 63.4703 118.377 60.5507 118.377 57.631C118.377 47.9724 127.165 43.7849 134.936 43.7849C137.368 43.7849 138.384 44.311 138.788 46.0312C138.788 47.5252 138.18 48.8772 136.152 50.4449C134.803 48.9456 133.449 48.2723 132.233 48.2723C129.53 48.2723 128.314 49.9925 128.314 52.9122L128.309 52.9174Z" fill="#89B964"/>
<path d="M152.084 74.9228C155.057 71.1246 156.867 71.0404 157.337 72.5397C158.178 75.2385 151.381 85.6967 144.583 86.0018C141.002 86.1596 138.84 83.6292 138.57 78.721C138.437 76.9797 138.57 71.919 139.919 65.9797C141.068 61.2346 141.676 56.5631 142.151 53.6382C142.422 52.0547 142.488 50.5501 142.488 49.3665C142.488 47.8619 142.151 46.5994 141.477 45.4105C143.842 44.3794 146.141 43.7481 148.236 43.7481C149.386 43.7481 150.806 43.9848 151.613 45.0159C152.426 46.0418 152.696 47.3885 152.426 49.1298C152.221 50.3976 152.022 51.6602 151.68 53.0858C150.668 57.5153 149.452 62.5024 149.044 64.7171C148.502 67.4842 148.032 71.9979 148.032 74.2915C148.032 75.875 148.436 76.9797 148.773 77.6952C149.447 77.5374 150.735 76.4274 152.084 74.9281V74.9228Z" fill="#89B964"/>
<path d="M173.307 76.1169C176.347 73.5497 178.713 71.3718 179.392 71.3718C179.934 71.3718 179.392 72.8501 177.297 76.7377C174.186 82.3403 167.498 86.2279 164.116 86.2279C160.534 86.2279 158.102 83.9711 158.102 79.1524C158.036 77.4426 158.306 75.5751 158.71 72.6186C158.848 71.9978 164.724 44.3057 167.902 32.1746C168.239 31.0067 169.118 29.6863 170.201 28.8288C171.284 27.9713 172.5 27.7399 173.511 27.8188C175.473 27.9766 177.364 28.5974 179.259 30.2282C179.53 30.5385 179.729 30.9278 179.8 31.396C179.8 31.4749 180.005 32.4061 180.005 34.1947C180.005 34.9733 180.005 35.9044 179.872 36.9145C179.535 40.1813 178.252 44.069 176.832 47.883C174.533 53.9485 171.155 59.2407 169.873 61.1819L169.806 61.6501C169.669 62.3498 169.536 63.1284 169.331 63.9069C168.856 66.3952 167.64 72.8501 167.64 74.7965C167.64 76.3537 167.978 77.3637 168.315 78.0634C170.139 77.9845 171.896 77.2848 173.317 76.1169H173.307ZM170.809 56.8261C172.295 54.3378 174.119 50.8394 175.54 46.9466C176.96 43.2904 178.176 39.5553 178.447 36.6041C178.513 35.5151 178.58 34.5051 178.513 33.7265C178.513 32.9479 177.634 32.6375 177.297 33.3372C177.093 33.7265 176.893 34.1947 176.756 34.6576C175.606 38.156 174.594 41.6596 173.716 45.1579C172.633 48.9667 171.687 52.9385 170.809 56.8261Z" fill="#89B964"/>
<path d="M145.429 41.486C144.797 41.1072 144.579 39.8657 144.612 39.0714C144.764 35.5572 150.45 34.7839 151.908 33.7055C154.307 31.9326 154.307 29.8547 154.231 28.3343C154.221 28.1344 154.459 28.0503 154.549 28.2239C158.791 36.3411 151.68 40.4339 148.977 41.6491C148.901 41.6807 148.83 41.707 148.754 41.7175C148.307 41.7911 146.835 42.3277 145.434 41.486H145.429Z" fill="#89B964"/>
<path d="M143.861 39.4291C141.225 33.232 145.79 28.3817 148.535 26.5457C149.291 26.0407 150.141 25.7513 151.001 25.7882C152.031 25.8303 153.029 26.0617 153.3 27.0455C154.82 32.5902 147.766 34.1369 146.64 34.8576C142.935 37.2406 143.904 39.4028 143.904 39.4028L143.861 39.4238V39.4291Z" fill="#89B964"/>
<path d="M135.615 32.1799L132.523 31.7854L130.186 26.4668L130.105 26.2774L129.929 26.1933L128.305 25.42L127.492 25.0359L127.089 24.8413L126.884 24.7466L126.737 24.6677C126.362 24.4362 126.025 23.9312 125.711 23.3841C125.388 22.837 125.103 22.2215 124.652 21.6323L124.49 21.4218L124.243 21.4482C123.863 21.4902 123.507 21.6218 123.213 21.7428C123.046 21.8111 122.894 21.8637 122.747 21.9058C122.609 21.5008 122.51 21.0694 122.41 20.6012C122.272 19.9857 122.12 19.3123 121.849 18.6758L121.631 18.1602L121.184 18.4128C120.956 18.5443 120.766 18.7547 120.633 18.9388L119.84 16.4558L119.493 15.3668L118.952 16.3453L116.506 20.7748L116.43 20.9116V21.0852C116.43 21.8006 116.515 22.4582 116.544 23.0684C116.135 23.1894 115.684 23.2631 115.213 23.363C115.061 23.3946 114.905 23.4314 114.748 23.4788C114.672 23.4998 114.591 23.5261 114.506 23.5577L114.273 23.6419C113.964 23.7681 113.665 23.9259 113.38 24.1048C112.435 24.7098 111.67 25.5094 110.9 26.188C110.468 25.057 110.093 23.847 109.594 22.6581L109.475 22.374L109.214 22.3372C108.544 22.2425 107.951 22.3425 107.433 22.3372C107.423 22.253 107.419 22.1636 107.409 22.0637C107.39 21.8006 107.366 21.485 107.295 21.1746L107.243 20.9589L107.086 20.8379L103.22 17.8341C102.821 16.461 102.355 15.1459 101.98 13.8307L101.837 13.3309L101.405 13.4414C100.83 13.5887 100.322 13.8097 99.8327 13.9622C99.1297 13.1047 98.4457 12.2104 97.7617 11.3109L96.6264 9.83786L96.0421 9.11189L95.7524 8.75943L95.5054 8.42801L95.2821 8.07028L95.0826 7.68625C94.9591 7.41796 94.8451 7.1444 94.7406 6.85507C94.5363 6.27639 94.3653 5.66615 94.1991 5.03487C94.0281 4.40886 93.8618 3.76179 93.6481 3.11999C93.5436 2.79909 93.4248 2.47819 93.2918 2.16255C93.1588 1.84691 93.0021 1.54179 92.8358 1.23667L92.3513 0.363403L91.9808 1.31032L89.6627 7.22857L88.214 7.38113L87.8815 7.41796L87.796 7.81777C87.5395 9.02246 87.4207 10.2008 87.2069 11.3109C86.7889 11.516 86.3329 11.6844 85.8579 11.8474C85.3022 12.0421 84.7274 12.2315 84.1526 12.5418L83.9294 12.6628L83.8819 12.9364L83.3736 15.835L83.2739 15.7982L82.9414 15.6825C82.8179 15.6456 82.6944 15.6036 82.4949 15.5983L82.1481 15.5878L82.0293 15.9823L80.5521 20.9221C80.3906 21.0273 80.2053 21.122 79.9916 21.2219C79.8871 21.2693 79.7731 21.3219 79.6591 21.3798C79.6306 21.2798 79.6068 21.1799 79.5783 21.0799C79.4928 20.7537 79.4168 20.4276 79.2743 20.0541L79.0938 19.5701L78.671 19.7384C78.4335 19.8331 78.272 19.9436 78.1058 20.0383C78.0915 20.0488 78.0773 20.0541 78.063 20.0646C77.8873 19.6543 77.7115 19.2071 77.493 18.76L77.322 18.4128L76.9848 18.4759C76.1535 18.6337 75.3982 18.9178 74.6715 19.0861C73.0992 16.8451 71.6789 14.4146 70.0496 12.1315L69.5936 11.4897L69.2421 12.2104L68.0261 14.7145L67.8741 15.0301L67.7268 15.3142C67.6793 15.4036 67.6271 15.4826 67.5891 15.5352C67.5463 15.5983 67.5226 15.6036 67.5178 15.6088C67.5178 15.6088 67.5083 15.6141 67.4513 15.6088C67.3991 15.6088 67.3136 15.5878 67.2281 15.5667C67.0523 15.5194 66.8528 15.4563 66.658 15.3931L66.3018 15.2827L66.1118 15.6562L64.1785 19.4123C63.3425 19.749 62.5255 20.1856 61.7655 20.7485C61.0102 21.3061 60.3262 21.9953 59.7277 22.7738C59.0579 22.837 58.3691 22.8264 57.6519 22.8633C57.4619 22.8738 57.2529 22.8896 57.0629 22.9054H56.9916L56.9726 22.9159C57.0296 22.9054 56.8016 22.9264 56.6971 23.0421C56.6686 23.0684 56.6449 23.0947 56.6211 23.1263L56.5974 23.1631L56.5689 23.2105C56.5499 23.242 56.5309 23.2841 56.5214 23.3104C56.4738 23.4525 56.4691 23.5103 56.4501 23.584C56.4263 23.7208 56.4121 23.8365 56.3979 23.9575C56.3456 24.4257 56.3076 24.8781 56.2696 25.3305L56.1603 26.6667L56.1271 26.9824C56.1223 27.0297 56.1128 27.0823 56.1176 27.0718C56.1176 27.0718 56.0938 27.1612 56.0796 27.2033L55.9893 27.5032C55.9893 27.5032 55.9893 27.5137 55.9846 27.519L55.7946 27.6452L55.5476 27.8293C55.4098 27.9293 55.2578 28.0187 55.0963 28.1029C54.7686 28.2765 54.4123 28.4238 54.0371 28.629L53.8138 28.75L53.7568 29.034L53.3578 31.0594L51.4293 31.7538L51.187 31.838L51.1252 32.1115C51.0017 33.1742 51.1252 34.0843 51.0445 35.0365C51.3865 34.3105 51.6193 33.4793 51.928 32.7954L52.0088 32.7691L54.7828 34.2158L54.3316 31.3119L54.6688 29.6022L58.1364 33.19L56.7446 28.3133C56.7779 28.266 56.8111 28.2186 56.8301 28.1818C56.8824 28.0713 56.9061 27.9977 56.9251 27.9346L57.0249 27.5979C57.0439 27.5295 57.0486 27.5242 57.0771 27.4085C57.1009 27.2875 57.1104 27.2244 57.1151 27.1665L57.1531 26.8088L57.2624 25.4515C57.3004 25.0044 57.3336 24.5572 57.3859 24.1311C57.3859 24.1101 57.3906 24.089 57.3954 24.068C57.4144 24.068 57.4334 24.068 57.4524 24.068L60.3499 29.1287L60.7727 23.1842C61.2334 22.6423 61.7417 22.1636 62.2927 21.7585C63.0242 21.2114 63.827 20.7958 64.663 20.4697L64.8388 20.4013L64.9338 20.2172L66.7673 16.6557C66.8148 16.6715 66.8623 16.682 66.9098 16.6978L67.9738 20.6117L68.1306 16.5452C68.2113 16.4716 68.2826 16.3979 68.3301 16.3295C68.4251 16.2033 68.4916 16.0875 68.5581 15.9718C68.6198 15.8561 68.6768 15.7456 68.7291 15.6404L68.8811 15.33L69.5224 14.0043C69.3751 15.1827 69.3038 16.7504 69.0141 17.1975C69.2421 17.6342 69.5271 18.0603 69.7551 18.4917C69.3561 19.3597 68.9523 20.4539 68.5533 21.3219C68.9951 23.1158 69.6459 25.1254 70.0876 26.9245C70.5959 25.8619 71.1564 24.5993 71.6646 23.5366C71.4794 22.2478 71.3844 20.8064 71.1991 19.5228C71.6504 18.9651 72.1064 18.4075 72.5577 17.8499C73.0564 18.6179 73.5647 19.3807 74.0967 20.1277L74.1584 20.2172L72.8664 22.7475C74.2344 21.8795 75.6072 21.0115 76.9753 20.1488C77.1083 20.4697 77.2508 20.8011 77.4123 21.1378L77.6118 21.5534L77.9918 21.4008C78.1723 21.3272 78.31 21.2482 78.4383 21.1693V25.9723L80.6756 22.1741C80.8513 22.0847 81.0366 21.9795 81.2171 21.8374L81.3548 21.7322L81.4071 21.5534L82.7514 17.066L84.6847 25.9723L88.3755 28.7605L86.6369 24.352L89.1497 25.1674L84.2524 16.5505L84.7654 13.6308L88.138 15.8771L88.5132 9.47488C88.5607 9.14872 88.6177 8.82782 88.6795 8.51218L90.0523 8.36488L90.3183 8.33857L90.437 8.03872L92.3893 3.0516C92.3798 5.33473 92.4368 8.67526 92.3988 10.5691C93.2016 11.5791 94.0756 12.7786 94.8783 13.7886C94.6836 14.0096 94.5506 14.3726 94.3558 14.5935C94.4508 15.1196 94.6741 15.6509 94.7691 16.177C95.5909 17.0345 96.4649 17.9814 97.2866 18.8389C98.7402 18.518 100.897 18.6968 102.564 18.7337L106.364 21.6849C106.388 21.8269 106.402 21.9795 106.412 22.1583C106.431 22.4214 106.454 22.737 106.526 23.0474L106.616 23.4314L106.944 23.4788C107.542 23.5629 108.074 23.4893 108.549 23.4788L108.487 31.4645L110.919 27.6084L110.972 27.5663C112.012 26.7404 112.867 25.7514 113.841 25.1359C114.083 24.9833 114.33 24.8518 114.586 24.7466L114.781 24.6729L114.971 24.6151C115.104 24.5783 115.242 24.5414 115.385 24.5099C115.945 24.3836 116.567 24.3047 117.204 24.0522L117.541 23.9207V23.4998C117.541 22.6791 117.432 21.9321 117.418 21.243L119.242 17.934L119.251 17.9709C119.047 19.9909 118.795 22.8212 118.605 24.6519C119.417 25.8356 120.22 27.1192 121.037 28.3081C121.683 26.7088 122.324 24.6677 122.97 23.0369C123.17 22.979 123.355 22.9106 123.521 22.8422C123.707 22.7686 123.873 22.7107 124.03 22.6686C123.84 24.3257 123.388 26.4037 123.54 27.9977C124.348 27.1507 125.179 26.3195 125.991 25.4778C126.082 25.5515 126.162 25.6304 126.262 25.6935L126.514 25.8303L126.718 25.925L127.122 26.1196L127.934 26.5037L129.169 27.0928C128.699 27.6978 128.229 28.2975 127.758 28.9025C128.737 29.4181 129.863 30.0178 130.851 30.5386L131.753 32.5955L131.872 32.8691L132.138 32.9006L135.254 33.3004L135.929 35.0259L136.057 32.6323L136.081 32.222L135.625 32.1589H135.601L135.615 32.1799ZM57.0629 24.0995H57.0676C57.0676 24.0995 57.0391 24.0995 57.0629 24.0995ZM99.5097 15.2616L99.5192 15.2721L99.7852 15.2037C100.298 15.0722 100.759 14.8776 101.201 14.7303C101.533 15.8403 101.899 16.9187 102.217 17.9919C101.353 17.3396 100.289 16.561 99.7662 16.1138C99.6617 15.8245 99.5904 15.5404 99.5097 15.2616Z" fill="#89B964"/>
</g>
<defs>
<clipPath id="clip0_500_36">
<rect width="180" height="100" fill="white" transform="translate(0 0.373901)"/>
</clipPath>
</defs>
</svg>
