<svg width="41" height="40" viewBox="0 0 41 40" fill="none" xmlns="http://www.w3.org/2000/svg">
<ellipse cx="20.7884" cy="20" rx="20.0445" ry="19.6261" fill="#B98D58"/>
<g clip-path="url(#clip0_406_599)">
<path d="M20.7884 16.0604C18.578 16.0604 16.7795 17.8197 16.7795 19.982C16.7795 22.1443 18.578 23.9036 20.7884 23.9036C22.9989 23.9036 24.7974 22.1443 24.7974 19.982C24.7974 17.8197 22.9991 16.0604 20.7884 16.0604Z" fill="white"/>
<path d="M29.3244 11.6317C27.9351 10.2727 26.095 9.52429 24.1431 9.52429H17.4335C15.4816 9.52429 13.6414 10.2727 12.2523 11.6317C10.8629 12.9906 10.0979 14.7907 10.0979 16.7001V23.2633C10.0979 25.1729 10.8629 26.973 12.2523 28.3319C13.6414 29.6909 15.4816 30.4393 17.4335 30.4393H24.1431C26.095 30.4393 27.9352 29.6909 29.3244 28.3319C30.7135 26.973 31.4787 25.1729 31.4787 23.2633V16.7001C31.4787 14.7907 30.7135 12.9906 29.3244 11.6317ZM20.7883 25.5169C17.6683 25.5169 15.1299 23.0339 15.1299 19.9818C15.1299 16.9297 17.6683 14.4467 20.7883 14.4467C23.9084 14.4467 26.4467 16.9297 26.4467 19.9818C26.4467 23.0339 23.9084 25.5169 20.7883 25.5169ZM27.0568 14.7165C26.9403 14.8304 26.7787 14.8959 26.6139 14.8959C26.449 14.8959 26.2877 14.8304 26.1712 14.7165C26.0543 14.6024 25.9875 14.4444 25.9875 14.2831C25.9875 14.1218 26.0543 13.9637 26.1712 13.8497C26.2877 13.7356 26.4489 13.6704 26.6139 13.6704C26.7787 13.6704 26.9403 13.7356 27.0568 13.8497C27.1734 13.9637 27.2403 14.1218 27.2403 14.2831C27.2403 14.4443 27.1734 14.6024 27.0568 14.7165Z" fill="#E7E5EA"/>
</g>
<defs>
<clipPath id="clip0_406_599">
<rect width="21.3808" height="20.915" fill="white" transform="translate(10.0979 9.52429)"/>
</clipPath>
</defs>
</svg>
