<svg width="41" height="40" viewBox="0 0 41 40" fill="none" xmlns="http://www.w3.org/2000/svg">
<ellipse cx="20.3364" cy="20" rx="20.0445" ry="19.6261" fill="#B98D58"/>
<g clip-path="url(#clip0_406_604)">
<path d="M31.8842 12.5114C31.0394 12.8739 30.1392 13.1142 29.2007 13.2308C30.1662 12.667 30.9031 11.7808 31.2495 10.7128C30.3494 11.2378 29.3555 11.6086 28.2963 11.8156C27.4416 10.9253 26.2234 10.3739 24.8944 10.3739C22.316 10.3739 20.2402 12.4211 20.2402 14.9308C20.2402 15.292 20.2715 15.6392 20.3482 15.9697C16.4763 15.785 13.0503 13.9697 10.7487 11.2045C10.3469 11.8864 10.1112 12.667 10.1112 13.5072C10.1112 15.085 10.9418 16.4836 12.1799 17.2933C11.4317 17.2795 10.6976 17.067 10.0757 16.7322C10.0757 16.7461 10.0757 16.7642 10.0757 16.7822C10.0757 18.9961 11.6901 20.835 13.807 21.2586C13.4279 21.36 13.0148 21.4086 12.586 21.4086C12.2878 21.4086 11.9868 21.392 11.7043 21.3308C12.3077 23.135 14.02 24.4614 16.056 24.5045C14.4715 25.717 12.4596 26.4475 10.2816 26.4475C9.89968 26.4475 9.53337 26.4308 9.16705 26.385C11.2301 27.6864 13.675 28.4295 16.3116 28.4295C24.8816 28.4295 29.5671 21.485 29.5671 15.4656C29.5671 15.2642 29.56 15.0697 29.55 14.8767C30.4743 14.235 31.251 13.4336 31.8842 12.5114Z" fill="#E7E5EA"/>
</g>
<defs>
<clipPath id="clip0_406_604">
<rect width="22.7171" height="22.2222" fill="white" transform="translate(8.30957 8.21661)"/>
</clipPath>
</defs>
</svg>
